<svg width="302" height="280" viewBox="0 0 302 280" fill="none" xmlns="http://www.w3.org/2000/svg">
<path d="M85.7952 0C104.395 6.16125 122.958 19.9788 134.92 35.3771C148.57 50.3515 145.975 51.4498 154.008 66.9696C156.01 66.5142 160.75 65.3304 162.535 65.2299C163.48 64.4287 167.02 62.1797 168.235 61.3635C171.235 60.7116 173.703 59.8804 176.628 60.8669L179.328 61.1024C180.46 61.2915 183.64 61.5473 184.578 61.0139C195.093 55.0409 204.288 46.113 213.993 38.8429C223.848 31.4664 261.333 6.66987 272.14 20.5895C278.92 29.3246 277.548 67.3004 274.36 77.992C273.183 83.0205 272.133 87.8292 270.115 92.6191C269.223 95.0422 268.39 97.2125 267.37 99.6026C267.078 100.717 259.555 117.56 259.36 117.792C256.413 123.146 253.495 126.764 249.1 131.041L245.26 136.713C245.403 138.513 245.92 143.444 245.665 144.971C247.57 147.432 249.423 149.782 251.17 152.357C257.89 158.646 257.965 159.394 266.32 163.946C268.15 167.19 268.848 167.992 271.308 170.797L274.69 172.762L275.29 174.135C274.158 176.58 271.113 180.12 268.803 181.197C250.405 201.57 221.943 209.11 195.573 211.837L202.075 214.047C206.77 215.149 210.01 216.84 214.225 219.098C224.74 224.699 236.77 234.897 240.94 246.148C243.73 251.168 250.645 261.824 249.43 266.917C246.318 271.655 236.718 271.511 231.378 272.04C222.048 273.402 212.658 274.429 203.298 275.585L198.063 275.924C191.628 277.911 183.768 277.733 177.04 278.171L170.613 278.893C161.268 279.464 151.9 279.409 142.57 278.726C135.64 277.845 127.983 278.448 120.97 278.428C119.17 278.373 117.355 278.144 115.555 277.991L116.763 277.101C116.935 276.925 117.115 276.754 117.28 276.572C119.328 274.37 119.193 273.441 119.088 270.533C121.728 267.175 121.33 264.448 122.643 260.663C123.46 258.302 125.38 257.375 127.48 256.291L128.32 254.557L129.213 252.855C129.828 251.056 130.405 249.246 130.953 247.426C129.738 245.821 128.92 244.119 127.968 242.342L126.475 237.688C123.355 233.706 123.123 228.786 122.44 223.834C122.245 219.593 122.403 216.042 122.583 211.792L122.568 209.438C123.888 207.504 124.96 206.504 124.368 204.247C122.238 203.55 122.005 203.653 119.71 203.818L114.55 201.693C101.875 198.763 93.1902 192.029 81.7602 188.093C75.8877 185.496 73.2552 183.652 69.1302 178.508C63.3552 171.313 50.4777 160.07 50.1327 149.878L52.4727 148.749L53.1327 148.106L56.8527 145.672C60.7977 143.811 64.3227 142.361 68.3802 140.745C76.8177 135.958 82.2627 131.084 88.0377 123.492C73.3152 113.458 71.4327 107.941 70.0152 90.5508C69.0777 85.8779 68.5977 83.1698 68.2377 78.4429C67.4127 75.938 67.0377 68.5225 66.8952 65.7798C66.6402 48.6344 67.4352 17.1597 76.4727 2.76593C79.0527 1.79595 83.0502 0.77869 85.7952 0Z" fill="#F6E7CA"/>
<path d="M85.7952 0C104.395 6.16125 122.958 19.9788 134.92 35.3771C148.57 50.3515 145.975 51.4498 154.008 66.9696C156.01 66.5142 160.75 65.3304 162.535 65.2299C163.48 64.4287 167.02 62.1797 168.235 61.3635C171.235 60.7115 173.703 59.8804 176.628 60.8668L179.328 61.1024C180.46 61.2915 183.64 61.5472 184.578 61.0139C195.093 55.0409 204.288 46.113 213.993 38.8429C223.848 31.4664 261.333 6.66987 272.14 20.5895C278.92 29.3246 277.548 67.3004 274.36 77.992C273.183 83.0205 272.133 87.8292 270.115 92.6191C269.223 95.0422 268.39 97.2125 267.37 99.6026C267.078 100.717 259.555 117.56 259.36 117.792C256.413 123.146 253.495 126.764 249.1 131.041C246.483 127.917 247.54 123.317 245.86 121.487C243.693 119.135 244.075 121.64 241.983 116.812L240.835 112.864L240.385 112.287C239.898 110.233 238.503 109.241 236.95 107.701L236.5 107.128L233.688 104.681L231.123 100.738C230.125 98.9169 229.803 98.4788 228.49 96.8584C225.663 96.1202 225.078 93.2477 220.293 90.7226L218.395 90.4796C216.985 91.6506 215.118 92.8411 214.72 94.5005C211.51 92.7384 210.7 92.3303 207.94 89.8322L208.743 90.0865C205.03 86.7009 202.278 85.7864 197.763 83.6177C196.135 81.962 189.025 78.2928 186.775 77.3694L186.025 77.5847L183.565 76.2831L183.52 73.9478L181.84 72.7678L176.793 72.8097L174.423 71.2104L173.26 71.4714C168.79 71.776 169.398 71.9178 165.445 69.767L160.368 70.1218C156.828 70.9823 153.138 71.6012 150.16 73.6297V74.2704C148.315 74.5719 146.695 74.86 144.858 75.2554C145.54 76.1466 147.685 76.1541 149.125 76.3701L148.548 76.3341C139.083 75.8172 133.315 80.2936 124.173 84.6379C123.303 86.079 122.403 87.5066 121.488 88.9192C107.028 89.7916 114.468 91.121 109.323 101.698C107.403 105.651 103.525 103.8 103.03 108.214C102.85 114.553 95.7627 124.991 91.0452 128.737C93.8052 130.529 93.6402 129.784 94.4052 132.232C93.4302 133.926 93.0177 134.538 92.4252 136.38L92.4477 136.359C94.8702 136.042 96.6926 134.431 97.7351 132.218L99.2201 131.49L99.7377 133.114C96.9252 136.058 96.5577 137.914 95.0427 139.737C93.4902 141.597 90.0551 140.741 87.3401 144.367C88.4426 147.028 88.6676 146.861 91.4576 147.542C89.7551 148.356 86.0127 150.292 84.3627 150.668L83.5452 150.905L81.3552 151.298C75.2502 154.055 57.4002 153.445 52.4727 148.749L53.1327 148.106L56.8526 145.672C60.7976 143.811 64.3226 142.361 68.3801 140.745C76.8176 135.958 82.2627 131.084 88.0377 123.492C73.3152 113.458 71.4327 107.941 70.0152 90.5508C69.0777 85.8779 68.5977 83.1698 68.2377 78.4429C67.4127 75.938 67.0376 68.5225 66.8951 65.7798C66.6401 48.6344 67.4352 17.1597 76.4727 2.76593C79.0527 1.79595 83.0502 0.77869 85.7952 0Z" fill="#C05002"/>
<path d="M85.7952 0C104.395 6.16125 122.958 19.9788 134.92 35.3771L134.425 35.1041C129.385 32.2796 130.053 30.3899 123.498 30.6135L124.968 33.2263L124.248 34.1408C121.578 31.5977 121.638 28.9368 119.553 28.1859C114.43 33.8182 120.603 37.7395 115.51 44.5249L112.3 46.1678C114.333 51.128 117.565 57.8384 118.668 62.7963C120.348 70.6868 121.66 72.9365 119.073 80.5989C118.068 81.4991 117.685 81.9477 116.47 82.5614L115.698 83.6747C113.785 85.7684 110.485 90.3866 108.993 90.4991C107.928 91.5756 106.443 92.7961 106.008 94.1532C103.435 97.9499 102.423 99.7308 98.0202 101.332C96.8802 101.111 95.5451 100.76 94.4351 100.788C93.5576 101.996 93.5202 101.885 92.3577 102.858C89.8902 102.678 90.6552 102.72 88.3677 100.694C81.1677 97.0534 77.0951 92.6566 74.7477 85.1083L73.1727 82.6169C70.4577 82.4886 69.5202 80.6282 68.2377 78.4429C67.4127 75.938 67.0377 68.5225 66.8952 65.7798C66.6402 48.6344 67.4352 17.1597 76.4727 2.76593C79.0527 1.79595 83.0502 0.77869 85.7952 0Z" fill="#561C0A"/>
<path d="M105.175 44.389L111.22 43.8077L112.3 46.1678C114.333 51.128 117.565 57.8384 118.668 62.7963C120.348 70.6868 121.66 72.9365 119.073 80.5989C118.068 81.4991 117.685 81.9477 116.47 82.5614L115.698 83.6747C113.785 85.7684 110.485 90.3865 108.993 90.4991C107.928 91.5756 106.443 92.7961 106.008 94.1532C103.435 97.9499 102.423 99.7308 98.0202 101.332C96.8802 101.111 95.5451 100.76 94.4352 100.788L92.5902 96.7233C92.4552 96.3512 90.2877 92.7579 89.9352 92.1622C84.6852 82.5104 84.6776 81.6904 84.0251 70.8743C88.4126 70.926 89.9352 66.9433 89.3502 63.1159L90.0327 62.1474C91.4127 61.7835 91.9077 61.3574 93.0852 60.5938C94.5477 57.9884 93.8802 57.2442 93.6027 53.7821L95.2902 53.0724C96.2052 47.4941 97.0527 49.041 101.47 45.8624C103.233 44.5946 102.708 44.5136 105.175 44.389Z" fill="#F1BB89"/>
<path d="M105.175 44.389L111.22 43.8077L112.3 46.1678C114.333 51.128 117.565 57.8384 118.668 62.7963C118.645 65.9141 119.238 67.3657 117.648 69.3596C116.29 69.3746 116.343 69.4227 115.083 68.9471L113.433 64.9636C108.985 63.2779 105.243 59.9674 102.445 56.1737C99.2876 52.194 102.393 47.3478 105.175 44.389Z" fill="#F7DCB3"/>
<path d="M90.7226 89.058L90.4301 86.3536C93.7376 82.4759 107.11 87.7504 108.993 90.4991C107.928 91.5756 106.443 92.7961 106.008 94.1532C103.435 97.9499 102.423 99.7308 98.0201 101.332C96.8801 101.111 95.5451 100.76 94.4351 100.788L92.5901 96.7234C92.4551 96.3513 90.2876 92.7579 89.9351 92.1622L90.7226 89.058Z" fill="#F5E7CC"/>
<path d="M102.843 92.9409L106.008 94.1532C103.435 97.9499 102.423 99.7308 98.0201 101.332C96.8801 101.111 95.5451 100.76 94.4351 100.788L92.5901 96.7233C99.7151 99.3647 95.7476 95.2755 102.843 92.9409Z" fill="#E4C9A4"/>
<path d="M90.7226 89.058C94.4801 93.8802 96.8951 93.5606 102.843 92.941C95.7476 95.2755 99.7151 99.3648 92.5901 96.7234C92.4551 96.3513 90.2876 92.7579 89.9351 92.1622L90.7226 89.058Z" fill="#F7DCB3"/>
<path d="M101.223 72.1008C106.353 75.7265 115.473 78.4346 116.47 82.5614L115.698 83.6747C108.13 82.3986 101.163 87.2673 93.2651 78.1451C95.7851 76.01 95.2976 75.1211 95.5151 72.1556L101.223 72.1008Z" fill="#F6E3BF"/>
<path d="M115.083 68.9471C113.695 71.5517 113.043 71.8638 110.395 72.677C103.975 72.2606 96.0552 59.7798 96.3852 54.1279C97.8102 53.6868 100.675 55.3958 102.445 56.1737C105.243 59.9674 108.985 63.2779 113.433 64.9636L115.083 68.9471Z" fill="#F5E7CC"/>
<path d="M86.1477 71.4422C89.5827 71.8683 92.0577 72.0311 95.5152 72.1556C95.2977 75.1211 95.7852 76.01 93.2652 78.1451C91.8177 77.3709 90.4902 77.2516 88.8702 76.9523C86.4252 74.8135 87.1002 75.1196 86.1477 71.4422Z" fill="#F7DCB3"/>
<path d="M86.1477 71.4421C93.2277 67.3469 94.1652 68.0311 101.223 72.1008L95.5152 72.1556C92.0577 72.031 89.5827 71.8683 86.1477 71.4421Z" fill="#F7C897"/>
<path d="M68.6277 56.5916C68.6802 50.5886 68.3727 41.1033 70.7877 35.7717L71.5377 35.6022C73.6902 39.2466 73.0677 45.6981 75.3552 48.9254L76.4426 48.6209C78.3851 45.7889 78.5351 44.0133 78.7826 40.6404L79.6677 40.6126C79.9452 41.5901 80.0501 41.7387 80.5676 42.5729L81.0551 43.3373C81.1676 45.5159 81.2127 52.0829 81.7302 53.6058L82.0452 52.3238C90.8127 54.0019 87.6626 48.0822 93.6026 53.7821C93.8801 57.2442 94.5477 57.9884 93.0852 60.5938C91.9077 61.3575 91.4126 61.7836 90.0326 62.1474L89.3502 63.1159C89.9352 66.9433 88.4126 70.926 84.0251 70.8743C84.6776 81.6904 84.6851 82.5104 89.9351 92.1622C90.2876 92.7579 92.4551 96.3513 92.5901 96.7234L94.4351 100.788C93.5576 101.996 93.5202 101.885 92.3577 102.858C89.8902 102.678 90.6551 102.72 88.3676 100.694C81.1676 97.0534 77.0951 92.6566 74.7476 85.1083L73.1726 82.6169C70.4576 82.4886 69.5202 80.6282 68.2377 78.4429C67.4127 75.938 67.0376 68.5225 66.8951 65.7798C67.6376 62.503 68.1177 59.9149 68.6277 56.5916Z" fill="#A8480D"/>
<path d="M68.6277 56.5916L69.7377 53.1572C72.3552 55.6133 67.7951 59.4565 73.5251 60.0386C74.6951 62.1819 71.3952 75.713 72.8427 79.2816C72.8427 79.2778 73.1351 82.2681 73.1726 82.6169C70.4576 82.4886 69.5202 80.6282 68.2377 78.4429C67.4127 75.938 67.0376 68.5225 66.8951 65.7798C67.6376 62.503 68.1177 59.9149 68.6277 56.5916Z" fill="#B54903"/>
<path d="M82.0453 52.3238C90.8128 54.0019 87.6627 48.0822 93.6027 53.7821C93.8802 57.2442 94.5477 57.9884 93.0852 60.5938C91.9077 61.3574 91.4127 61.7835 90.0327 62.1474L89.3503 63.1159L87.8277 63.3484C85.4802 61.2157 85.1427 60.9111 82.2102 59.7423C81.9927 58.5375 81.8352 55.0056 81.7302 53.6058L82.0453 52.3238Z" fill="#F7C897"/>
<path d="M75.0176 79.1098L76.5551 83.6304C78.7451 84.6071 78.1001 84.2756 81.0326 83.5066L81.4376 85.6769C82.4726 90.1015 85.0151 94.5786 87.1001 98.6798L88.3676 100.694C81.1676 97.0534 77.0951 92.6566 74.7476 85.1083L75.0176 79.1098Z" fill="#DD6605"/>
<path d="M75.0176 79.1098C74.9651 78.1631 77.5525 66.1151 78.025 65.2554L78.6775 67.0288L81.1526 67.4955C82.4726 70.9508 78.5351 77.3131 80.8001 81.8165C80.8601 81.9268 81.0101 83.3131 81.0326 83.5066C78.1001 84.2756 78.7451 84.6071 76.5551 83.6304L75.0176 79.1098Z" fill="#DD6605"/>
<path d="M82.2102 59.7423C85.1427 60.9111 85.4802 61.2157 87.8277 63.3484L89.3502 63.1159C89.9352 66.9433 88.4126 70.926 84.0251 70.8743C83.3351 67.5255 82.7652 63.1932 82.2102 59.7423Z" fill="#F1BB89"/>
<path d="M81.4376 85.6769L83.7776 85.172C87.1451 87.5553 88.9602 95.2012 87.1002 98.6798C85.0152 94.5785 82.4726 90.1015 81.4376 85.6769Z" fill="#FB8A0D"/>
<path d="M81.0552 43.3373C81.4752 35.3816 81.9927 18.375 87.7302 13.0952C97.7577 9.77564 108.708 36.0456 111.22 43.8077L105.175 44.3891C102.708 44.5136 103.233 44.5947 101.47 45.8625C97.0527 49.041 96.2052 47.4941 95.2902 53.0724L93.6027 53.7821C87.6627 48.0822 90.8127 54.0019 82.0452 52.3238L81.7302 53.6058C81.2127 52.083 81.1677 45.5159 81.0552 43.3373Z" fill="#EF7C63"/>
<path d="M82.0452 52.3238C82.0227 49.7109 81.7677 47.05 82.5852 44.6231L83.6127 43.7927C85.9452 45.1865 88.5627 49.3245 89.0577 49.5563C92.0802 50.9697 92.4101 50.3313 95.2901 53.0724L93.6026 53.7821C87.6626 48.0822 90.8127 54.0019 82.0452 52.3238Z" fill="#F59F77"/>
<path d="M213.993 38.8429C223.848 31.4664 261.333 6.66984 272.14 20.5895C278.92 29.3246 277.548 67.3004 274.36 77.992C273.183 83.0205 272.133 87.8291 270.115 92.6191C269.223 95.0422 268.39 97.2125 267.37 99.6025C267.078 100.717 259.555 117.56 259.36 117.792C256.413 123.146 253.495 126.764 249.1 131.041C246.483 127.917 247.54 123.317 245.86 121.487C243.693 119.135 244.075 121.64 241.983 116.812L240.835 112.864L240.385 112.287C239.898 110.233 238.503 109.241 236.95 107.701L236.5 107.128L233.688 104.681L231.123 100.738C230.125 98.9169 229.803 98.4787 228.49 96.8584C225.978 94.0549 224.613 90.7196 223.188 87.3003C224.11 83.9582 225.1 80.6357 226.158 77.3349L228.235 74.7805L227.77 72.3656L228.603 70.2441C229.158 66.4002 229.765 65.3446 231.355 61.8345L233.86 56.3882C235.608 53.0724 236.493 51.7048 238.713 48.6763L238.45 47.8796L238.045 47.6659L238.06 46.5796C243.483 38.7237 237.858 41.4979 239.928 34.8092C237.003 32.4731 230.71 35.6854 226.945 36.7522L227.395 36.227C224.658 37.1235 224.35 37.3853 222.16 39.2758C220.248 40.6209 215.905 43.035 213.738 43.8932L213.408 42.8137C214.585 41.5331 216.91 39.9802 218.56 38.2345L217.825 38.5699L216.423 37.9157C215.613 38.1895 214.795 38.5308 213.993 38.8429Z" fill="#F1BB89"/>
<path d="M213.993 38.8429C223.848 31.4664 261.333 6.66984 272.14 20.5895C278.92 29.3246 277.548 67.3004 274.36 77.992C266.17 77.0693 267.873 67.4909 266.658 64.3027C264.813 67.3229 265.473 73.1105 263.065 76.9552L262.345 76.1421L262.84 72.2471C266.08 65.8495 268.915 32.7702 263.868 28.3171C258.355 27.6742 255.018 32.1806 249.79 35.3253L249.22 35.6629C245.17 32.6757 246.183 36.5189 239.928 34.8092C237.003 32.4731 230.71 35.6854 226.945 36.7522L227.395 36.227C224.658 37.1235 224.35 37.3853 222.16 39.2758C220.248 40.6209 215.905 43.035 213.738 43.8932L213.408 42.8137C214.585 41.5331 216.91 39.9802 218.56 38.2345L217.825 38.5699L216.423 37.9157C215.613 38.1895 214.795 38.5308 213.993 38.8429Z" fill="#601E0B"/>
<path d="M249.22 35.6629L249.79 35.3253C255.018 32.1806 258.355 27.6742 263.868 28.3171C268.915 32.7702 266.08 65.8495 262.84 72.2471L261.775 72.1068C260.965 76.016 258.325 90.2875 253.548 89.5576C252.108 86.8862 260.77 81.6514 256.023 77.7159C255.453 78.5404 255.453 78.3213 255.348 79.2785C254.958 82.9259 252.168 86.7031 250.3 90.6491C249.948 87.8779 250.54 86.6026 251.313 83.9267L248.763 85.307C248.508 83.5591 248.898 83.6694 249.985 81.6926C251.793 80.8727 251.763 80.9237 253.21 79.5861C254.065 75.0093 251.215 78.4129 251.883 74.4166C252.618 70.0078 254.995 67.8653 254.658 62.9883C253.12 61.3072 249.22 56.8878 247.495 56.0776C240.828 52.9411 239.718 56.689 238.713 48.6763L238.45 47.8796L238.045 47.6659L238.06 46.5796C243.483 38.7237 237.858 41.4978 239.928 34.8092C246.183 36.5189 245.17 32.6757 249.22 35.6629Z" fill="#EF8369"/>
<path d="M239.928 34.8092C246.183 36.5189 245.17 32.6757 249.22 35.6629C246.573 38.4161 239.988 46.4295 238.45 47.8796L238.045 47.6659L238.06 46.5796C243.483 38.7237 237.858 41.4979 239.928 34.8092Z" fill="#612C10"/>
<path d="M262.345 76.1421L263.065 76.9553C265.473 73.1106 264.813 67.3229 266.658 64.3027C267.873 67.491 266.17 77.0693 274.36 77.992C273.183 83.0205 272.133 87.8292 270.115 92.6191C269.223 95.0422 268.39 97.2125 267.37 99.6026C267.078 100.717 259.555 117.56 259.36 117.792C256.413 123.146 253.495 126.764 249.1 131.041C246.483 127.917 247.54 123.317 245.86 121.487C243.693 119.135 244.075 121.64 241.983 116.812L240.835 112.864L240.385 112.287C242.568 109.671 245.103 107.723 247.72 105.543C249.775 102.766 251.08 101.049 253.435 98.5223C256.608 95.241 260.695 81.1563 262.345 76.1421Z" fill="#E66C03"/>
<path d="M240.835 112.864C241.765 112.904 243.895 114.003 246.49 114.128C257.125 114.635 260.62 106.341 267.37 99.6025C267.078 100.717 259.555 117.56 259.36 117.792C256.413 123.146 253.495 126.764 249.1 131.041C246.483 127.917 247.54 123.317 245.86 121.487C243.693 119.135 244.075 121.64 241.983 116.812L240.835 112.864Z" fill="#DD6605"/>
<path d="M241.983 116.812C250.765 117.288 246.955 125.19 259.36 117.792C256.413 123.146 253.495 126.764 249.1 131.041C246.483 127.917 247.54 123.317 245.86 121.487C243.693 119.135 244.075 121.64 241.983 116.812Z" fill="#B54903"/>
<path d="M262.345 76.1421L263.065 76.9553C265.473 73.1106 264.813 67.3229 266.658 64.3027C267.873 67.491 266.17 77.0693 274.36 77.992C273.183 83.0205 272.133 87.8292 270.115 92.6191L269.98 88.5028L269.313 87.9447L269.26 88.049C264.31 85.4436 259.345 97.3715 257.395 101.125C259.068 95.9124 260.365 93.1855 260.68 87.7107C257.965 92.5096 257.223 98.4135 254.043 102.644L253.105 100.702L253.203 102.84C252.625 100.818 253.345 100.4 253.435 98.5223C256.608 95.241 260.695 81.1563 262.345 76.1421Z" fill="#C05A15"/>
<path d="M231.355 61.8346C236.41 60.5878 235.63 58.1564 238.413 57.3642L240.235 58.7303C243.13 58.2427 242.313 57.9261 244.233 59.1819C246.153 64.9261 242.568 68.3267 242.478 73.3776C242.403 77.5127 242.89 72.1083 242.643 74.5247C239.29 75.728 238.938 76.1811 236.568 78.7369C233.56 78.1345 233.178 77.971 230.538 76.3851L228.235 74.7805L227.77 72.3656L228.603 70.2441C229.158 66.4002 229.765 65.3447 231.355 61.8346Z" fill="#F6E3BF"/>
<path d="M228.235 74.7805L230.538 76.3851C233.178 77.971 233.56 78.1346 236.568 78.737C238.938 76.1811 239.29 75.728 242.643 74.5247C241.233 76.8968 240.49 78.1391 239.41 80.7572L239.89 82.6049C241.848 82.0258 243.445 79.8285 244.893 78.2313C245.493 82.2268 241.87 83.6274 242.823 85.5164C245.65 86.0295 244.975 85.4638 246.318 87.2763C246.25 89.5448 246.205 89.6334 245.335 91.7144L244.848 91.8209L244.563 91.0542C240.033 92.4721 236.418 93.3715 231.783 91.9642L231.19 90.1285C231.4 86.6521 228.85 79.9125 226.158 77.3349L228.235 74.7805Z" fill="#E4C9A4"/>
<path d="M231.19 90.1285C234.925 87.2515 241.765 86.139 244.563 91.0542C240.033 92.4721 236.418 93.3716 231.783 91.9642L231.19 90.1285Z" fill="#F7DCB3"/>
<path d="M230.538 76.3851C233.178 77.971 233.56 78.1345 236.568 78.7369C236.17 80.9485 236.08 81.0393 234.895 82.989L233.568 83.2666C230.68 81.2906 230.545 79.7624 230.538 76.3851Z" fill="#F7DCB3"/>
<path d="M246.775 96.7691L247.323 96.0077C250.278 99.7504 247.023 99.4413 247.72 105.543C245.103 107.723 242.568 109.671 240.385 112.287C239.898 110.233 238.503 109.241 236.95 107.701L236.5 107.128L233.688 104.681C237.19 102.953 244.555 100.574 246.393 99.2515L246.775 96.7691Z" fill="#FAD4A1"/>
<path d="M231.123 100.738L231.648 98.7653C235.188 96.7151 235.398 99.505 239.47 97.5395C238.825 96.325 238.788 96.361 238.57 95.0197L240.528 93.5996C242.56 93.4195 242.455 93.4405 244.383 94.1862L244.653 96.4803L246.775 96.7691L246.393 99.2514C244.555 100.574 237.19 102.953 233.688 104.681L231.123 100.738Z" fill="#F7DCB3"/>
<path d="M175.225 69.0446C184.188 67.9418 186.355 68.4039 195.333 70.0873C199.758 74.5232 215.208 81.7782 216.28 86.1285C215.238 86.2335 214.24 86.1638 213.483 86.6971C215.163 88.0542 216.64 89.2238 218.395 90.4796C216.985 91.6506 215.118 92.8411 214.72 94.5005C211.51 92.7384 210.7 92.3303 207.94 89.8322L208.743 90.0865C205.03 86.7009 202.278 85.7864 197.763 83.6177C196.135 81.962 189.025 78.2928 186.775 77.3694L186.025 77.5846L183.565 76.2831L183.52 73.9478L181.84 72.7678L176.793 72.8097L174.423 71.2104L175.045 70.4534L175.225 69.0446Z" fill="#F58910"/>
<path d="M181.69 72.0911C184.57 72.6079 185.178 72.7123 187.81 73.9591L188.613 75.5404L186.775 77.3694L186.025 77.5847L183.565 76.2831L183.52 73.9478L181.84 72.7678L181.69 72.0911Z" fill="#F07604"/>
<path d="M174.423 71.2104L175.045 70.4534C177.295 71.0521 179.395 71.6034 181.69 72.0911L181.84 72.7678L176.793 72.8097L174.423 71.2104Z" fill="#E66C03"/>
<path d="M70.0151 90.5508C70.9001 91.9357 71.8826 93.3138 72.5201 94.8074C75.1826 98.0504 75.3551 98.9379 76.6751 102.946L78.3701 104.354L80.1326 103.355C83.7251 104.886 91.0601 109.679 93.5951 110.076L95.5901 105.523C95.6801 107.766 94.7127 109.307 93.7677 111.399L91.6526 112.852L95.4626 113.315C94.2776 115.427 92.8001 117.624 92.3726 119.947C90.6701 121.778 90.1677 122.95 88.0377 123.492C73.3152 113.458 71.4326 107.941 70.0151 90.5508Z" fill="#9B400B"/>
<path d="M78.3701 104.354L80.1326 103.355C83.7251 104.886 91.0601 109.679 93.5951 110.076L95.5901 105.523C95.6801 107.766 94.7127 109.307 93.7677 111.399L91.6526 112.852C90.6026 112.78 89.7251 112.734 88.6676 112.723C87.9701 116.442 90.1301 117.113 89.2151 120.244C87.1676 120.337 84.0476 119.662 83.0351 117.782C84.5576 117.437 84.6476 117.569 85.7576 116.53C83.1851 112.659 75.2426 110.503 74.3126 106.262C75.7226 104.411 75.4001 104.993 78.3701 104.354Z" fill="#A8480D"/>
<path d="M72.5202 94.8074C75.1827 98.0504 75.3552 98.9379 76.6752 102.946C74.9502 102.753 74.7327 102.361 73.4577 101.202C72.1227 98.7166 72.3777 97.562 72.5202 94.8074Z" fill="#A8480D"/>
<path d="M202.578 67.7445C199.053 65.5885 196.023 65.5982 194.943 63.4797C197.35 61.0769 198.573 63.0266 201.115 61.0904C202.608 56.0529 202.533 56.2547 207.31 53.5068C207.678 54.9944 207.73 55.9742 208.57 57.1662C211.458 55.9569 216.048 55.1489 219.04 56.1722L219.37 57.1834L218.628 57.3425C215.65 57.9944 213.235 58.8736 211.368 61.5075L211.36 61.4257C212.613 61.3559 213.708 61.2472 214.953 61.3785C215.043 63.9133 215.058 65.9696 214.983 68.5134L214.698 69.4969C212.47 70.1893 211.608 69.8098 209.223 69.3799C206.695 68.3717 205.203 68.1931 202.578 67.7445Z" fill="#FD9211"/>
<path d="M56.8526 145.672C60.7976 143.811 64.3226 142.361 68.3801 140.745L70.9301 141.838L71.0951 142.301C71.6126 143.687 71.6877 144.121 72.6627 145.273C69.7452 146.731 66.8951 145.639 65.0876 147.695C65.6201 149.208 65.7476 149.152 66.9026 150.314C70.4876 150.229 78.4077 149.829 81.3552 151.298C75.2502 154.055 57.4002 153.445 52.4727 148.749L53.1327 148.106L56.8526 145.672Z" fill="#B54903"/>
<path d="M56.8527 145.672C60.7977 143.811 64.3227 142.361 68.3802 140.745L70.9302 141.838L71.0952 142.301C71.6127 143.687 71.6877 144.121 72.6627 145.273C69.7452 146.731 66.8951 145.639 65.0876 147.695C65.6201 149.208 65.7477 149.152 66.9027 150.314C64.2927 149.849 62.7852 149.509 60.0852 149.568L60.5127 148.202C59.4552 146.125 59.7402 146.777 56.8527 145.672Z" fill="#F07604"/>
<path d="M53.1327 148.106L56.8527 145.672C59.7402 146.777 59.4552 146.125 60.5127 148.202L60.0852 149.568C57.7527 149.581 55.4202 148.749 53.1327 148.106Z" fill="#E3D1B7"/>
<path d="M222.16 39.2758C224.35 37.3854 224.658 37.1235 227.395 36.2271L226.945 36.7522C230.71 35.6855 237.003 32.4732 239.928 34.8093C237.858 41.4979 243.483 38.7237 238.06 46.5796L238.045 47.6659L238.45 47.8797L238.713 48.6764C236.493 51.7049 235.608 53.0724 233.86 56.3883C232.203 54.149 235.09 45.7754 232.638 42.6637C231.978 41.825 231.73 39.2751 231.678 38.1266C227.995 38.5437 226.053 40.7537 222.16 39.2758Z" fill="#6F3514"/>
<path d="M127.435 56.0942C125.703 52.0695 123.423 47.371 128.35 44.6096C131.028 45.4618 131.298 45.6411 133.023 47.8624L134.358 51.6088C136.195 53.3058 137.223 54.5098 138.828 56.3755L138.1 57.9936C135.22 59.2247 136.188 59.302 133.57 58.7213C131.83 57.4865 131.8 56.386 131.14 54.194C131.433 56.8399 131.395 57.9126 132.82 60.1962L134.23 60.9494C133.765 61.7858 133.173 62.5765 132.625 63.368L131.583 63.1564C130.855 61.5923 130.488 60.2044 128.913 59.3147L127.435 56.0942Z" fill="#F98609"/>
<path d="M127.173 46.0665C129.483 48.0409 131.92 49.7934 134.358 51.6088C136.195 53.3057 137.223 54.5098 138.828 56.3755L138.1 57.9936C135.22 59.2247 136.188 59.302 133.57 58.7213C131.83 57.4865 131.8 56.386 131.14 54.1939C130.233 51.9749 128.29 48.3373 127.173 46.0665Z" fill="#F6951C"/>
<path d="M89.3952 138.031L90.8052 138.1C89.7927 140.823 83.7927 144.587 81.1227 146.017C80.7252 148.144 80.6427 147.097 81.6552 149.226L82.5852 149.543C83.5152 149.871 83.7252 149.896 84.3627 150.668L83.5452 150.905L81.3552 151.298C78.4077 149.829 70.4877 150.229 66.9027 150.314C65.7477 149.152 65.6201 149.208 65.0876 147.695C66.8951 145.639 69.7452 146.731 72.6627 145.273C75.6327 144.198 78.6027 143.106 81.5652 142.001C84.4977 140.773 86.6652 139.608 89.3952 138.031Z" fill="#EF7A0F"/>
<path d="M214.983 68.5135C215.995 65.3304 215.598 63.4355 216.798 60.7986L218.418 60.8121L219.468 61.1196C219.888 70.56 220.945 68.3229 218.635 77.6109C217.188 77.3641 216.76 77.3259 215.343 76.8195C211.248 73.8135 204.895 71.7145 202.578 67.7445C205.203 68.1931 206.695 68.3717 209.223 69.3799C211.608 69.8098 212.47 70.1894 214.698 69.4969L214.983 68.5135Z" fill="#FB8A0D"/>
<path d="M214.983 68.5135C215.995 65.3304 215.598 63.4355 216.798 60.7986L218.418 60.8121C215.973 64.2029 217.398 69.3912 215.185 72.8653C212.133 73.623 211.06 71.5832 209.223 69.3799C211.608 69.8098 212.47 70.1894 214.698 69.4969L214.983 68.5135Z" fill="#FC8B0B"/>
<path d="M128.133 71.0048L128.733 71.0018C132.895 74.5059 130.675 71.3882 134.013 69.7303C138.213 71.5975 137.148 70.4272 140.635 68.3582C142.383 68.3522 143.83 68.3469 144.985 68.3432C142.24 72.3146 137.283 73.0888 136.728 75.4227C134.65 76.8458 128.313 80.872 126.07 80.5299C125.155 77.3109 128.793 77.4046 126.618 71.7257L128.133 71.0048Z" fill="#C95805"/>
<path d="M133.023 47.8624C132.993 47.0447 132.888 46.3208 132.655 45.5376L133.57 44.9577C136.555 46.0965 138.655 49.9742 139.953 52.7581C141.828 56.7716 142.06 53.0214 145.908 56.2292C147.535 61.1167 145.818 59.7348 145.788 63.7355L145.143 64.317C142.195 61.5863 140.185 60.1497 138.828 56.3755C137.223 54.5098 136.195 53.3058 134.358 51.6088L133.023 47.8624Z" fill="#EF7A0F"/>
<path d="M126.618 71.7257C124.645 68.0618 124.638 65.1467 123.333 60.9779L121.323 60.2269L120.933 59.0709C122.185 57.5773 121.66 58.0454 124.218 57.7536C124.42 56.29 124.218 56.7941 124.975 55.5308L126.145 56.5615L127.435 56.0942L128.913 59.3147C128.41 62.8218 130.81 63.4272 132.693 67.9268L131.32 69.818L128.598 69.8563L128.133 71.0048L126.618 71.7257Z" fill="#F07604"/>
<path d="M223.42 71.9328L227.77 72.3656L228.235 74.7805L226.158 77.3349C225.1 80.6357 224.11 83.9582 223.188 87.3003C224.613 90.7196 225.978 94.0549 228.49 96.8584C225.663 96.1202 225.078 93.2477 220.293 90.7226C222.085 86.6003 222.138 85.8704 221.823 81.4466L220.345 81.2906C221.455 75.8495 218.23 76.6492 223.42 71.9328Z" fill="#B54903"/>
<path d="M144.985 68.3432L146.748 67.5742L146.928 66.584C147.138 65.4722 147.243 65.0896 147.655 64.0049L148.885 64.4422C149.695 66.7018 150.055 68.7685 151.938 69.9988C155.11 70.5157 157.173 70.2959 160.368 70.1218C156.828 70.9823 153.138 71.6012 150.16 73.6297C142.053 73.4452 142.87 74.7963 136.728 75.4227C137.283 73.0888 142.24 72.3146 144.985 68.3432Z" fill="#D26109"/>
<path d="M219.468 61.1196C220.923 60.0604 221.11 59.8781 221.755 58.1932C225.453 59.3042 224.125 66.7258 223.69 69.875L223.42 71.9328C218.23 76.6492 221.455 75.8495 220.345 81.2906C217.585 80.0775 217.105 79.1556 215.343 76.8195C216.76 77.3259 217.188 77.3641 218.635 77.6109C220.945 68.3229 219.888 70.5599 219.468 61.1196Z" fill="#F07604"/>
<path d="M168.235 61.3634C171.235 60.7115 173.703 59.8803 176.628 60.8668C173.11 66.821 170.38 67.0446 163.6 67.2636C165.76 66.722 166.803 66.8923 167.935 65.4242L167.005 64.5495C165.82 64.7633 163.63 65.2314 162.535 65.2299C163.48 64.4287 167.02 62.1796 168.235 61.3634Z" fill="#F07604"/>
<path d="M81.5651 142.001C80.3876 140.875 80.1101 140.822 79.6826 139.238C81.4526 136.161 83.5226 133.176 87.3926 134.696C87.9851 135.959 88.5176 136.932 89.3951 138.031C86.6651 139.608 84.4976 140.773 81.5651 142.001Z" fill="#E66C03"/>
<path d="M174.408 67.8308C175.765 66.5885 177.94 64.4767 179.755 64.9643C183.04 65.8443 192.895 68.4587 195.333 70.0874C186.355 68.4039 184.188 67.9418 175.225 69.0446L174.408 67.8308Z" fill="#DD6605"/>
<path d="M128.913 59.3147C130.488 60.2044 130.855 61.5923 131.583 63.1564L132.625 63.3679C133.173 62.5765 133.765 61.7858 134.23 60.9494C136.93 62.6635 137.005 62.1047 138.115 64.7543C137.26 66.6605 134.688 68.0386 132.693 67.9268C130.81 63.4272 128.41 62.8218 128.913 59.3147Z" fill="#EF7A0F"/>
<path d="M207.31 53.5068C209.628 52.7731 211.983 52.1685 214.083 50.9682C216.483 51.3785 217.998 52.0139 218.89 54.6328C213.528 56.1302 213.7 52.6794 208.57 57.1662C207.73 55.9742 207.678 54.9944 207.31 53.5068Z" fill="#F07604"/>
<path d="M165.445 69.767C166.818 69.0581 172.698 68.0964 174.408 67.8308L175.225 69.0446L175.045 70.4534L174.423 71.2104L173.26 71.4714C168.79 71.776 169.398 71.9178 165.445 69.767Z" fill="#D26109"/>
<path d="M95.4626 113.315L95.7851 111.613L97.2251 110.771C100.825 113.824 96.1376 118.83 92.3726 119.947C92.8001 117.624 94.2776 115.427 95.4626 113.315Z" fill="#A8480D"/>
<path d="M223.69 69.8751L227.005 68.4625C228.235 69.3904 227.89 68.9328 228.603 70.2441L227.77 72.3657L223.42 71.9328L223.69 69.8751Z" fill="#A8480D"/>
<path d="M165.445 69.767C169.398 71.9178 168.79 71.776 173.26 71.4714L174.423 71.2104L176.793 72.8097L181.84 72.7678L183.52 73.9478L183.565 76.2831L186.025 77.5847L186.775 77.3694C189.025 78.2928 196.135 81.962 197.763 83.6177C202.278 85.7864 205.03 86.7009 208.743 90.0865L207.94 89.8322C210.7 92.3303 211.51 92.7384 214.72 94.5005C218.613 95.5793 220.03 98.6183 219.52 102.33C208.27 97.5958 211.69 101.053 202.938 100.412C202.473 101.844 201.948 103.663 201.415 105.032L200.695 105.877L201.01 107.305L199.525 108.338C199.263 109.55 199.158 109.012 199.713 109.972L201.37 109.037L201.993 109.462C200.845 111.937 199.99 112.728 200.215 115.178C202.413 116.317 201.258 116.054 203.823 115.876L205.188 114.478C206.815 114.867 207.363 114.861 208.615 116.003L208.743 116.296C207.16 118.383 207.595 117.426 207.28 120.03L205.833 121.803C202.068 122.95 200.133 125.413 197.883 128.558C193.203 133.884 192.235 134.286 191.193 141.083C182.298 143.443 171.018 138.659 168.348 140.545C165.445 142.153 164.365 141.992 161.148 142.031C159.085 143.349 159.775 142.752 158.545 145.04C147.595 146.292 143.763 146.114 132.963 145.413C131.395 145.054 129.235 144.986 127.578 144.862L127.105 143.917C127.045 143.907 126.985 143.897 126.918 143.887C121.675 141.67 116.59 142.124 110.92 141.621C113.583 140.83 116.418 140.865 119.283 140.59L119.545 139.685L117.76 138.241C115.855 136.943 115.945 137.028 114.775 135.031C114.145 133.61 111.933 131.353 110.8 130.09L108.64 127.795C106.765 128.616 100.96 131.266 99.2201 131.49L97.7351 132.218C96.6926 134.431 94.8702 136.042 92.4477 136.359L92.4251 136.38C93.0176 134.538 93.4302 133.926 94.4052 132.232C93.6402 129.784 93.8052 130.529 91.0452 128.737C95.7627 124.991 102.85 114.553 103.03 108.214C103.525 103.8 107.403 105.651 109.323 101.698C114.468 91.121 107.028 89.7916 121.488 88.9192C122.403 87.5066 123.303 86.079 124.173 84.6379C133.315 80.2936 139.083 75.8172 148.548 76.3341L149.125 76.3701C147.685 76.1541 145.54 76.1466 144.858 75.2554C146.695 74.86 148.315 74.5719 150.16 74.2704V73.6297C153.138 71.6012 156.828 70.9823 160.368 70.1218L165.445 69.767Z" fill="#EF7A0F"/>
<path d="M183.948 85.4151C184.525 84.8465 184.968 83.9312 185.395 83.2005C187.705 82.7722 188.98 82.8712 191.313 82.911L194.305 85.235C195.865 86.1742 196.938 86.6791 198.595 87.4481L199.143 86.6852L197.763 83.6177C202.278 85.7864 205.03 86.7009 208.743 90.0865L207.94 89.8322C210.7 92.3303 211.51 92.7384 214.72 94.5005C218.613 95.5793 220.03 98.6183 219.52 102.33C208.27 97.5958 211.69 101.053 202.938 100.412C202.473 101.844 201.948 103.663 201.415 105.032L200.695 105.877L201.01 107.305L199.525 108.338C196.075 106.067 194.215 106.679 191.823 104.198C191.065 107.202 190.518 108.674 190.885 111.815L191.748 113.128L192.753 113.261C192.46 112.485 192.205 111.813 191.95 111.021L194.508 110.803L195.205 111.461L193.825 113.8L192.363 114.108C190.63 112.834 189.715 112.328 188.455 110.626L187.158 111.773L185.59 112.629C184.053 112.162 183.498 111.698 182.178 110.836C182.8 112.929 183.018 112.434 182.298 113.93L179.628 113.845C174.7 110.1 173.973 112.179 168.588 113.62L167.013 109.499C165.078 108.286 163.638 108.86 162.198 106.878C155.44 104.287 154.33 103.985 147.183 105.153L146.943 104.7C152.073 102.868 156.813 105.311 161.853 104.179L162.715 105.666L163.93 105.665C163.038 103.046 161.965 101.231 160.653 98.8313C161.365 97.2042 162.025 95.5553 162.633 93.8862C162.273 93.6296 161.905 93.373 161.545 93.1165C162.078 90.8397 161.695 90.5418 163.105 89.5291C164.86 91.8149 163.99 95.2845 163.375 97.8674L163.173 98.7256L163.728 98.3385C164.98 94.6851 168.55 92.2417 167.905 87.6904C165.715 85.5013 166.78 86.0145 163.938 85.5584L165.115 85.0572C169.075 86.1337 176.08 83.9537 183.948 85.4151Z" fill="#FB8A0D"/>
<path d="M163.938 85.5583L165.115 85.0572C169.075 86.1337 176.08 83.9537 183.948 85.4151L184.998 87.6086C185.875 94.1577 183.378 93.2027 180.955 99.5493L179.815 99.9544L178.6 99.0481L175.263 101.153C175.285 101.794 175.053 102.038 174.76 102.721C171.595 102.922 169.15 101.351 166.06 99.7105L165.445 99.3797L164.74 99.9296L163.728 98.3385C164.98 94.6851 168.55 92.2417 167.905 87.6904C165.715 85.5013 166.78 86.0145 163.938 85.5583Z" fill="#FFAE29"/>
<path d="M175.263 101.153C173.2 94.9829 172.743 96.7316 171.91 89.3228L173.613 88.6956C176.41 91.4773 178.165 95.1299 178.6 99.0481L175.263 101.153Z" fill="#FFBC39"/>
<path d="M162.198 106.878C165.445 106.182 171.273 108.011 174.618 106.497L176.103 103.145C177.303 103.845 176.92 103.612 177.85 104.726L179.545 103.864C179.44 104.894 179.425 105.281 179.845 106.233L181.105 105.832C182.013 103.777 182.035 102.654 183.678 101.849L185.073 103.77C186.168 102.927 186.115 102.972 186.88 101.817C188.395 103.373 188.11 109.795 187.158 111.773L185.59 112.629C184.053 112.162 183.498 111.698 182.178 110.836C182.8 112.929 183.018 112.434 182.298 113.93L179.628 113.845C174.7 110.1 173.973 112.179 168.588 113.62L167.013 109.499C165.078 108.286 163.638 108.86 162.198 106.878Z" fill="#FD9211"/>
<path d="M199.338 92.9837C199.15 91.5276 198.85 90.3341 199.263 88.944C203.725 87.4954 207.265 92.7339 207.415 96.6746C205.54 98.253 203.073 98.2417 202.938 100.412L200.23 102.05C196.915 101.71 197.448 103.365 193.93 102.311C194.245 99.7653 194.08 100.614 196.038 98.3497L198.123 98.2778L199.338 92.9837Z" fill="#FFAE29"/>
<path d="M198.123 98.2778L199.338 92.9837C201.618 96.0264 201.175 94.6986 201.55 98.1022L200.433 99.0219C199.788 98.8321 198.685 98.5516 198.123 98.2778Z" fill="#FFBC39"/>
<path d="M183.948 85.4151C184.525 84.8465 184.968 83.9312 185.395 83.2005C187.705 82.7722 188.98 82.8712 191.313 82.911L194.305 85.235C192.903 85.6566 192.355 85.9342 190.87 85.7632C190.09 87.0257 190.435 87.133 190.623 89.0009C189.573 88.3655 188.92 85.8449 186.88 84.2485L185.973 84.5351L184.998 87.6086L183.948 85.4151Z" fill="#F6951C"/>
<path d="M137.725 127.795C140.41 128.433 142.938 129.172 145.69 129.266L148.938 131.014C150.61 131.295 150.475 130.929 151.24 131.788C151.66 134.452 151.683 135.064 152.995 137.391L152.47 140.932L153.565 140.951L154.398 137.098L155.628 136.541L160.578 138.71C163.795 140.156 165.025 139.851 168.348 140.545C165.445 142.153 164.365 141.992 161.148 142.031C159.085 143.349 159.775 142.752 158.545 145.04C147.595 146.292 143.763 146.114 132.963 145.413C131.395 145.054 129.235 144.986 127.578 144.862L127.105 143.917C127.045 143.907 126.985 143.897 126.918 143.887C121.675 141.67 116.59 142.124 110.92 141.621C113.583 140.83 116.418 140.865 119.283 140.59L119.545 139.685L117.76 138.241C120.543 136.537 123.033 135.026 125.688 133.118L129.04 131.916C130.6 131.149 132.798 131.234 134.598 131.145L135.258 128.908L137.725 127.795Z" fill="#FB8A0D"/>
<path d="M129.04 131.916L137.898 132.815C139.788 137.208 140.643 137.26 145.3 138.212C144.115 139.152 143.62 139.528 142.54 140.639L141.198 140.408C138.475 140.449 136.818 140.118 134.793 141.799C134.215 142.917 133.45 144.285 132.963 145.413C131.395 145.054 129.235 144.986 127.578 144.862L127.105 143.917C127.045 143.907 126.985 143.897 126.918 143.887C121.675 141.67 116.59 142.124 110.92 141.621C113.583 140.83 116.418 140.865 119.283 140.59L119.545 139.685L117.76 138.242C120.543 136.537 123.033 135.026 125.688 133.118L129.04 131.916Z" fill="#FC8B0B"/>
<path d="M127.105 143.917L127.953 141.891C130.36 140.757 132.183 141.196 134.793 141.799C134.215 142.917 133.45 144.285 132.963 145.413C131.395 145.054 129.235 144.986 127.578 144.862L127.105 143.917Z" fill="#FD9E19"/>
<path d="M137.725 127.795C140.41 128.433 142.938 129.172 145.69 129.266L148.938 131.014C150.61 131.295 150.475 130.929 151.24 131.788C146.763 134.895 143.643 133.593 137.898 132.815L129.04 131.916C130.6 131.149 132.798 131.234 134.598 131.145L135.258 128.908L137.725 127.795Z" fill="#561C0A"/>
<path d="M134.793 141.799C136.818 140.118 138.475 140.449 141.198 140.408C138.775 143.714 137.305 145.246 132.963 145.413C133.45 144.285 134.215 142.917 134.793 141.799Z" fill="#FB8A0D"/>
<path d="M108.64 127.795C115.923 123.002 119.838 123.643 128.493 124.851L137.725 127.795L135.258 128.908L134.598 131.145C132.798 131.234 130.6 131.149 129.04 131.916L125.688 133.118C123.033 135.026 120.543 136.537 117.76 138.242C115.855 136.943 115.945 137.028 114.775 135.031C114.145 133.61 111.933 131.353 110.8 130.09L108.64 127.795Z" fill="#2C0F04"/>
<path d="M125.688 133.118C123.033 135.026 120.543 136.537 117.76 138.242C115.855 136.943 115.945 137.028 114.775 135.031C118.315 134.037 122.035 133.622 125.688 133.118Z" fill="#EF7A0F"/>
<path d="M150.385 87.4623L155.538 88.181L159.055 93.1825C158.635 94.097 158.275 94.4983 157.683 95.3422C154.608 96.2957 133.503 95.6566 131.185 93.7436L131.62 92.4916C142.39 87.9102 137.883 88.2268 150.385 87.4623Z" fill="#4B1D0A"/>
<path d="M175.518 80.3874C179.838 76.6177 187.225 80.2793 191.313 82.911C188.98 82.8712 187.705 82.7722 185.395 83.2005C184.968 83.9312 184.525 84.8465 183.948 85.4151C176.08 83.9537 169.075 86.1337 165.115 85.0572L163.938 85.5584C160.473 86.3483 159.325 86.4143 155.838 86.5801L155.71 86.9687L155.538 88.181L150.385 87.4624C151.525 78.9568 172.413 86.9147 175.518 80.3874Z" fill="#FD9211"/>
<path d="M135.685 125.004C134.913 122.272 134.62 121.894 135.288 119.266C140.08 115.465 149.313 123.133 149.83 128.162C148.27 129.416 148.105 129.022 145.69 129.266C142.938 129.172 140.41 128.433 137.725 127.795L128.493 124.851L128.988 123.226L130.203 122.853C131.823 123.911 133.03 124.627 134.74 125.537L135.685 125.004Z" fill="#FFAE29"/>
<path d="M176.793 72.8097L181.84 72.7678L183.52 73.9478L183.565 76.2831L186.025 77.5847L186.775 77.3694C189.025 78.2928 196.135 81.962 197.763 83.6177L199.143 86.6852L198.595 87.4481C196.938 86.6791 195.865 86.1743 194.305 85.235L191.313 82.911C187.225 80.2793 179.838 76.6177 175.518 80.3874C169.923 78.743 165.783 78.0176 160.075 77.0048C163.083 76.7925 165.205 76.3581 167.965 77.4586C173.785 76.6732 173.478 76.7917 176.793 72.8097Z" fill="#F98609"/>
<path d="M176.793 72.8097L181.84 72.7678L183.52 73.9478L183.565 76.2831L186.025 77.5847C183.408 78.4241 182.208 76.986 179.178 76.8847C173.448 76.6935 173.718 79.1713 167.965 77.4586C173.785 76.6732 173.478 76.7917 176.793 72.8097Z" fill="#FB8A0D"/>
<path d="M135.685 125.004C133.968 122.859 133.683 121.481 132.333 119.196C133.293 115.425 136.518 115.737 135.745 113.521L133.24 113.273C137.568 111.173 145.525 117.824 149.395 119.655C152.643 121.194 152.485 117.142 155.043 121.504C153.408 125.241 152.365 129.311 148.938 131.014L145.69 129.266C148.105 129.022 148.27 129.416 149.83 128.162C149.313 123.133 140.08 115.465 135.288 119.266C134.62 121.894 134.913 122.272 135.685 125.004Z" fill="#FD9E19"/>
<path d="M165.445 69.767C169.398 71.9178 168.79 71.776 173.26 71.4714C163.698 75.1661 160.45 74.3491 150.16 74.2704V73.6297C153.138 71.6012 156.828 70.9823 160.368 70.1218L165.445 69.767Z" fill="#E66C03"/>
<path d="M147.183 105.153C154.33 103.985 155.44 104.287 162.198 106.878C163.638 108.86 165.078 108.286 167.013 109.499C159.213 111.101 154.63 108.172 147.183 105.153Z" fill="#F98609"/>
<path d="M155.71 86.9688C160.555 91.6769 160.195 91.5516 160.645 98.6964C160.743 100.308 160.285 101.821 159.145 103.002C155.155 103.148 157.39 99.9139 150.43 99.5028C153.333 98.9642 155.905 98.8239 158.155 97.0497C158.71 95.6604 159.37 94.5831 159.055 93.1825L155.538 88.181L155.71 86.9688Z" fill="#FB8A0D"/>
<path d="M190.63 214.201C192.528 211.906 192.895 212.268 195.573 211.837L202.075 214.047C206.77 215.149 210.01 216.84 214.225 219.098C224.74 224.699 236.77 234.897 240.94 246.148C243.73 251.168 250.645 261.824 249.43 266.917C246.318 271.655 236.718 271.511 231.378 272.04C222.048 273.402 212.658 274.429 203.298 275.585L198.063 275.924C191.628 277.911 183.768 277.733 177.04 278.171L170.613 278.893C161.268 279.464 151.9 279.409 142.57 278.726C135.64 277.845 127.983 278.448 120.97 278.428C119.17 278.373 117.355 278.144 115.555 277.991L116.763 277.101C116.935 276.925 117.115 276.754 117.28 276.572C119.328 274.37 119.193 273.441 119.088 270.533C121.728 267.175 121.33 264.448 122.643 260.663C123.46 258.302 125.38 257.375 127.48 256.291L128.32 254.557L129.213 252.855C129.828 251.056 130.405 249.246 130.953 247.426C133.128 243.798 136.353 240.425 139.585 237.723L140.95 238.624C142.998 238.137 148.458 235.737 149.815 233.843L154.015 232.684C152.71 231.573 151.353 230.521 150.003 229.456C151.87 229.132 153.715 228.563 155.538 228.047L159.498 229.577L159.595 230.641L160.78 232.281L164.5 232.434C164.733 230.355 165.318 229.1 167.238 228.514C174.648 227.793 176.545 223.474 183.145 218.228C185.23 217.888 186.318 215.209 190.63 214.201Z" fill="#313E51"/>
<path d="M155.538 228.047L159.498 229.577L159.595 230.641L160.78 232.281L160.54 233.795L161.215 233.868C159.73 234.467 159.393 234.441 158.178 235.457C159.22 236.405 159.918 236.368 161.305 236.597L160.593 237.918C162.19 238.952 167.695 242.79 169.045 243.19C171.31 240.341 171.94 239.954 174.865 237.894C168.873 251.897 175.315 247.731 178.233 259.213C177.678 261.342 177.205 263.128 177.355 265.356C177.393 267.559 177.603 269.389 176.44 271.355C175.413 271.725 175.263 271.995 174.19 271.638C172.248 272.801 171.94 272.918 171.295 275.147C171.273 275.234 171.265 275.324 171.25 275.412L170.613 278.893C161.268 279.464 151.9 279.409 142.57 278.726C135.64 277.845 127.983 278.448 120.97 278.428C119.17 278.373 117.355 278.144 115.555 277.991L116.763 277.101C116.935 276.925 117.115 276.754 117.28 276.572C119.328 274.37 119.193 273.441 119.088 270.533C121.728 267.175 121.33 264.448 122.643 260.663C123.46 258.302 125.38 257.375 127.48 256.291L128.32 254.557L129.213 252.855C129.828 251.056 130.405 249.246 130.953 247.426C133.128 243.797 136.353 240.425 139.585 237.723L140.95 238.624C142.998 238.137 148.458 235.737 149.815 233.843L154.015 232.684C152.71 231.573 151.353 230.521 150.003 229.455C151.87 229.132 153.715 228.563 155.538 228.047Z" fill="#A8480D"/>
<path d="M139.585 237.723L140.95 238.624L138.093 240.541L141.805 240.469C141.003 243.581 138.888 241.863 139.218 245.589C142.488 247.641 142.315 248.026 141.363 252.026L138.985 253.818C139.87 253.709 140.635 253.659 141.505 253.854C142.42 255.652 142.323 255.667 142.51 257.731C147.61 260.216 148.173 260.419 151.863 264.42C152.125 266.631 151.953 266.054 150.655 268.447C149.545 268.404 148.353 268.168 147.34 268.663C150.355 270.259 154.66 269.602 155.92 273.768C155.988 274.002 156.04 274.243 156.1 274.481C155.29 275.822 155.103 276.067 153.535 276.439C150.903 277.063 147.048 276.833 144.49 276.003L142.57 278.726C135.64 277.845 127.983 278.448 120.97 278.428C119.17 278.373 117.355 278.144 115.555 277.991L116.763 277.101C116.935 276.925 117.115 276.754 117.28 276.572C119.328 274.37 119.193 273.441 119.088 270.533C121.728 267.175 121.33 264.448 122.643 260.663C123.46 258.302 125.38 257.375 127.48 256.291L128.32 254.557L129.213 252.855C129.828 251.056 130.405 249.246 130.953 247.426C133.128 243.798 136.353 240.425 139.585 237.723Z" fill="#7D3914"/>
<path d="M129.213 252.855L130.503 254.552C130.57 256.483 130.63 257.809 129.768 259.563C127.218 263.287 125.703 265.371 126.655 270.09C127.023 271.903 127.848 273.716 127.885 275.566C132.55 277.024 139.578 276.112 144.49 276.003L142.57 278.726C135.64 277.845 127.983 278.448 120.97 278.428C119.17 278.373 117.355 278.144 115.555 277.991L116.763 277.101C116.935 276.925 117.115 276.754 117.28 276.572C119.328 274.37 119.193 273.441 119.088 270.533C121.728 267.175 121.33 264.448 122.643 260.663C123.46 258.302 125.38 257.375 127.48 256.291L128.32 254.557L129.213 252.855Z" fill="#8B4B21"/>
<path d="M119.088 270.533C121.728 267.175 121.33 264.448 122.643 260.663C123.46 258.302 125.38 257.375 127.48 256.291L126.468 259.021C125.65 261.19 121.188 278.115 120.97 278.428C119.17 278.373 117.355 278.144 115.555 277.991L116.763 277.101C116.935 276.925 117.115 276.754 117.28 276.572C119.328 274.37 119.193 273.441 119.088 270.533Z" fill="#251E1C"/>
<path d="M129.768 259.563C131.95 261.462 132.093 261.934 132.73 264.77C133.27 267.152 134.56 268.241 136.293 269.773C136.443 269.911 136.593 270.06 136.75 270.193C138.895 271.985 142.015 270.613 144.325 272.41L144.078 273.529C139.023 275.769 133.15 274.244 127.885 275.566C127.848 273.716 127.023 271.903 126.655 270.09C125.703 265.371 127.218 263.287 129.768 259.563Z" fill="#6F3514"/>
<path d="M139.585 237.723L140.95 238.624L138.093 240.541C135.753 242.909 132.7 250.665 130.503 254.552L129.213 252.855C129.828 251.056 130.405 249.246 130.953 247.426C133.128 243.798 136.353 240.425 139.585 237.723Z" fill="#251E1C"/>
<path d="M160.593 237.918C162.19 238.952 167.695 242.79 169.045 243.19L170.11 246.962C167.335 249.206 159.828 247.269 155.425 247.432C150.693 247.932 151.405 248.503 147.43 250.824L146.583 250.231C146.26 247.61 146.508 247.125 147.355 244.594C149.418 242.583 148.36 243.149 151.705 242.781L151.87 241.958L150.138 239.353L150.745 238.408C154.03 238.227 157.308 238.065 160.593 237.918Z" fill="#C05A15"/>
<path d="M173.56 264.104C174.76 265.851 175.278 267.271 174.91 269.42C174.775 270.197 174.475 270.909 174.19 271.638C172.248 272.801 171.94 272.918 171.295 275.147C171.273 275.234 171.265 275.324 171.25 275.412L170.613 278.893C161.268 279.464 151.9 279.409 142.57 278.726L144.49 276.003C147.048 276.833 150.903 277.063 153.535 276.439C155.103 276.067 155.29 275.822 156.1 274.481C156.04 274.243 155.988 274.002 155.92 273.768C154.66 269.602 150.355 270.259 147.34 268.663C148.353 268.168 149.545 268.404 150.655 268.447L152.733 268.429C153.603 269.045 154.48 269.645 155.403 270.177C158.418 271.921 164.17 272.759 167.523 271.723C173.853 269.767 171.408 268.288 173.56 264.104Z" fill="#903D0A"/>
<path d="M174.865 237.894C168.873 251.897 175.315 247.731 178.233 259.213C177.678 261.342 177.205 263.128 177.355 265.356C177.393 267.559 177.603 269.389 176.44 271.355C175.413 271.725 175.263 271.995 174.19 271.638C174.475 270.909 174.775 270.197 174.91 269.42C175.278 267.272 174.76 265.851 173.56 264.104L171.94 262.823C167.47 262.347 162.768 261.522 158.358 262.647L158.56 262.305C161.538 260.115 165.888 260.176 169.428 259.255C172.06 258.571 173.425 258.01 174.805 255.681C173.965 253.011 171.843 251.914 169.465 250.605C163.383 248.683 158.125 248.508 152.058 250.518L152.403 249.186L155.425 247.432C159.828 247.269 167.335 249.206 170.11 246.962L169.045 243.19C171.31 240.341 171.94 239.954 174.865 237.894Z" fill="#2C0F04"/>
<path d="M152.058 250.518C158.125 248.508 163.383 248.683 169.465 250.605C168.708 252.173 168.363 254.097 167.95 255.793C166.48 257.215 166.195 257.598 164.088 257.861C160.39 258.323 155.178 257.305 152.26 254.918C151.315 252.844 151.435 252.734 152.058 250.518Z" fill="#D26109"/>
<path d="M158.358 262.647C162.768 261.522 167.47 262.347 171.94 262.823C171.723 264.246 170.958 265.573 170.365 266.882C165.693 270.016 160.938 266.092 156.01 266.689C155.065 266.803 154.728 266.824 153.843 266.518C154.42 264.753 156.82 263.699 158.358 262.647Z" fill="#B35313"/>
<path d="M155.538 228.047L159.498 229.577L159.595 230.641C158.425 231.037 154.863 232.134 154.015 232.684C152.71 231.573 151.353 230.521 150.003 229.455C151.87 229.132 153.715 228.563 155.538 228.047Z" fill="#E3D1B7"/>
<path d="M174.865 237.894C182.898 231.651 191.298 246.38 194.583 252.7C198.955 261.717 198.07 265.151 198.948 274.549L197.688 275.376L198.063 275.924C191.628 277.911 183.768 277.733 177.04 278.171L170.613 278.893L171.25 275.412C171.265 275.324 171.273 275.234 171.295 275.147C171.94 272.918 172.248 272.801 174.19 271.638C175.263 271.995 175.413 271.725 176.44 271.355C177.603 269.389 177.393 267.559 177.355 265.356C177.205 263.128 177.678 261.342 178.233 259.213C175.315 247.731 168.873 251.897 174.865 237.894Z" fill="#A45A27"/>
<path d="M174.865 237.894C182.898 231.651 191.298 246.38 194.583 252.7L192.678 252.047C190.533 255.019 192.37 261.652 190.6 262.326L188.995 262.034L189.123 263.401C184.78 262.199 185.628 261.202 179.875 261.002L178.233 259.213C175.315 247.731 168.873 251.897 174.865 237.894Z" fill="#AC612C"/>
<path d="M177.355 265.356C178.12 267.004 178.315 268.051 180.13 268.752C180.865 269.037 181.69 269.19 182.463 269.364C183.775 271.597 183.318 273.546 183.273 276.089C187.983 275.911 193.015 275.167 197.688 275.376L198.063 275.924C191.628 277.911 183.768 277.733 177.04 278.171L170.613 278.893L171.25 275.412C171.265 275.324 171.273 275.234 171.295 275.147C171.94 272.918 172.248 272.801 174.19 271.638C175.263 271.995 175.413 271.725 176.44 271.355C177.603 269.389 177.393 267.559 177.355 265.356Z" fill="#7D3914"/>
<path d="M171.25 275.412L172.96 274.875C174.28 275.953 175.615 277.245 177.04 278.171L170.613 278.893L171.25 275.412Z" fill="#612C10"/>
<path d="M178.233 259.213L179.875 261.002C185.628 261.203 184.78 262.199 189.123 263.401L189.37 264.354C189.483 266.591 187.675 268.49 186.445 270.255C184.428 271.362 184.518 271.584 183.888 273.725C183.663 274.505 183.468 275.299 183.273 276.089C183.318 273.546 183.775 271.597 182.463 269.364C181.69 269.19 180.865 269.037 180.13 268.752C178.315 268.051 178.12 267.004 177.355 265.356C177.205 263.128 177.678 261.342 178.233 259.213Z" fill="#8B4B21"/>
<path d="M189.37 264.354C189.483 266.591 187.675 268.49 186.445 270.255L184.405 268.923L184.518 267.266C186.033 265.799 187.413 265.115 189.37 264.354Z" fill="#7D3914"/>
<path d="M232.105 238.512L233.095 237.782C235.593 239.447 237.108 244.808 238.038 247.711L240.94 246.148C243.73 251.168 250.645 261.824 249.43 266.917C246.318 271.655 236.718 271.511 231.378 272.04C232.053 269.842 232.443 267.946 232.225 265.643C231.978 263.095 231.168 258.566 229.128 256.909C227.8 250.585 225.063 242.687 232.105 238.512Z" fill="#313E51"/>
<path d="M232.105 238.512L233.095 237.782C235.593 239.447 237.108 244.808 238.038 247.711C236.298 252.999 238.825 253.271 239.125 258.292C237.805 260.093 237.588 260.286 235.698 261.482L234.19 260.978C230.568 255.152 231.295 245.073 232.105 238.512Z" fill="#3E4B5F"/>
<path d="M217.893 253.588L219.213 253.095C220.405 249.998 220.713 244.666 222.843 242.613L223.878 243.209L224.253 244.986L225.693 245.128C225.025 249.197 224.403 252.239 226.405 256.06C227.305 256.358 228.205 256.71 229.128 256.909C231.168 258.566 231.978 263.095 232.225 265.643C232.443 267.946 232.053 269.842 231.378 272.04C222.048 273.402 212.658 274.429 203.298 275.585L203.283 274.936C205.285 273.875 205.503 273.687 206.568 271.69C210.775 266.125 214.143 259.515 217.893 253.588Z" fill="#2A3649"/>
<path d="M216.46 259.533C216.813 260.006 216.85 260.004 217.12 260.643C218.043 262.783 218.365 265.566 217.585 267.738C215.845 269.185 215.53 268.845 213.355 268.687L213.273 268.731L212.77 268.423C213.483 264.89 213.933 262.229 216.46 259.533Z" fill="#313E51"/>
<path d="M214.225 219.098C224.74 224.699 236.77 234.897 240.94 246.148L238.038 247.71C237.108 244.808 235.593 239.447 233.095 237.782L232.105 238.512C225.063 242.687 227.8 250.585 229.128 256.909C228.205 256.71 227.305 256.358 226.405 256.06C224.403 252.239 225.025 249.197 225.693 245.128L224.253 244.986L223.878 243.209L222.843 242.613C220.713 244.666 220.405 249.998 219.213 253.095L217.893 253.588C218.703 248.527 222.393 243.263 219.198 239.303L219.13 238.874L221.343 236.063L220.645 234.998L214.383 234.032C212.553 233.633 211.203 233.57 209.868 232.303L209.853 228.293C209.26 226.524 208.795 224.482 208.338 222.655C211.03 221.843 212.275 222.383 214.945 223.065C214.9 221.558 214.57 220.567 214.225 219.098Z" fill="#232D3E"/>
<path d="M208.338 222.655C211.03 221.843 212.275 222.383 214.945 223.065C217.038 224.866 217.135 226.214 217.803 228.837C217.15 231.138 217.81 230.302 215.86 231.507C212.785 231.317 212.028 230.552 209.853 228.293C209.26 226.524 208.795 224.482 208.338 222.655Z" fill="#F6E3BF"/>
<path d="M224.988 228.653L226.795 229.981C227.343 232.05 227.155 232.279 226.45 234.205C225.468 233.837 224.74 233.346 223.885 232.736C224.328 231.681 224.665 230.774 224.838 229.639L224.988 228.653Z" fill="#A09C8A"/>
<path d="M183.145 218.228C185.23 217.888 186.318 215.209 190.63 214.201C189.453 223.358 194.043 233.789 191.515 239.747L190.39 240.434L187.788 239.332C184.42 231.985 168.895 235.243 164.5 232.434C164.733 230.355 165.318 229.1 167.238 228.514C174.648 227.793 176.545 223.474 183.145 218.228Z" fill="#E3D1B7"/>
<path d="M161.215 233.868L160.54 233.795L160.78 232.281L164.5 232.434C168.895 235.243 184.42 231.985 187.788 239.332C189.348 241.744 188.935 241.748 191.725 242.861C194.883 244.123 197.335 250.623 198.565 253.644C199.03 254.792 199.465 255.951 199.878 257.118C200.388 259.377 200.89 261.622 201.52 263.85L203.958 266.334C203.298 269.309 202.608 271.887 203.283 274.936L203.298 275.585L198.063 275.924L197.688 275.376L198.948 274.549C198.07 265.151 198.955 261.717 194.583 252.7C191.298 246.38 182.898 231.651 174.865 237.894C171.94 239.954 171.31 240.341 169.045 243.19C167.695 242.79 162.19 238.952 160.593 237.918L161.305 236.597C159.918 236.368 159.22 236.405 158.178 235.457C159.393 234.441 159.73 234.467 161.215 233.868Z" fill="#6F3514"/>
<path d="M161.215 233.868C165.468 234.495 168.063 234.657 171.063 237.93L171.49 239.33C170.095 240.053 168.475 240.212 166.968 239.774C165.048 239.198 163.218 237.518 161.305 236.597C159.918 236.368 159.22 236.405 158.178 235.457C159.393 234.441 159.73 234.467 161.215 233.868Z" fill="#B35313"/>
<path d="M201.52 263.85L203.958 266.334C203.298 269.309 202.608 271.887 203.283 274.936L203.298 275.585L198.063 275.924L197.688 275.376L198.948 274.549C201.018 271.142 201.123 267.741 201.52 263.85Z" fill="#251E1C"/>
<path d="M190.63 214.201C192.528 211.906 192.895 212.268 195.573 211.837L202.075 214.047C200.035 214.572 199.045 214.799 196.96 215.057C196.863 215.702 196.698 216.261 196.81 216.843L198.01 221.311L198.205 221.768C196.848 226.747 198.648 227.493 199.248 232.07C199.638 235.037 194.853 237.194 195.243 240.659C196.075 247.954 200.163 249.203 199.878 257.118C199.465 255.95 199.03 254.792 198.565 253.644C197.335 250.623 194.883 244.123 191.725 242.861C188.935 241.748 189.348 241.744 187.788 239.332L190.39 240.434L191.515 239.747C194.043 233.789 189.453 223.358 190.63 214.201Z" fill="#1C2331"/>
<path d="M206.065 262.614C209.643 254.998 213.535 247.222 216.97 239.601L219.198 239.303C222.393 243.263 218.703 248.527 217.893 253.588C214.143 259.515 210.775 266.125 206.568 271.69C205.503 273.687 205.285 273.875 203.283 274.936C202.608 271.887 203.298 269.309 203.958 266.334L206.065 262.614Z" fill="#E3D1B7"/>
<path d="M206.065 262.614C206.058 262.818 206.05 263.022 206.043 263.227C205.93 265.609 204.37 268.767 205.128 270.874L206.568 271.69C205.503 273.687 205.285 273.875 203.283 274.936C202.608 271.887 203.298 269.309 203.958 266.334L206.065 262.614Z" fill="#C8B394"/>
<path d="M202.075 214.047C206.77 215.149 210.01 216.84 214.225 219.098C214.57 220.567 214.9 221.558 214.945 223.065C212.275 222.383 211.03 221.843 208.338 222.655L207.663 222.181L202.893 219.221C201.258 219.899 199.63 220.596 198.01 221.311L196.81 216.843C196.698 216.261 196.863 215.702 196.96 215.057C199.045 214.799 200.035 214.572 202.075 214.047Z" fill="#2A3649"/>
<path d="M196.81 216.843C198.633 215.466 197.748 215.775 200.425 216.048C202.518 217.72 202.075 216.914 202.893 219.221C201.258 219.899 199.63 220.596 198.01 221.311L196.81 216.843Z" fill="#313E51"/>
<path d="M214.383 234.032L220.645 234.998L221.343 236.063L219.13 238.874C213.453 237.439 206.463 238.197 203.313 236.561L204.145 235.498C207.475 233.56 210.505 233.981 214.383 234.032Z" fill="#EFEBEB"/>
<path d="M198.01 221.311C199.63 220.596 201.258 219.899 202.893 219.221L207.663 222.181C207.475 224.575 207.67 226.318 206.17 228.062C201.393 229.735 199.563 225.663 198.205 221.768L198.01 221.311Z" fill="#3E4B5F"/>
<path d="M218.395 90.4796L220.293 90.7226C225.078 93.2477 225.663 96.1202 228.49 96.8584C229.803 98.4787 230.125 98.9169 231.123 100.738L233.688 104.681L236.5 107.128L236.95 107.701C238.503 109.241 239.898 110.233 240.385 112.287L240.835 112.864L241.983 116.812C244.075 121.64 243.693 119.135 245.86 121.487C247.54 123.317 246.483 127.917 249.1 131.041L245.26 136.713C245.403 138.513 245.92 143.444 245.665 144.971C247.57 147.432 249.423 149.782 251.17 152.357C257.89 158.646 257.965 159.394 266.32 163.946C268.15 167.19 268.848 167.992 271.308 170.797C268.255 170.923 262.075 170.958 259.413 171.751C255.873 172.402 250.15 170.223 246.813 169.084C244.083 168.028 243.535 167.905 241.653 165.706C239.23 166.482 236.838 165.043 234.528 164.318C223.6 160.875 213.678 156.704 201.955 157.247C199.893 157.343 199.128 155.947 198.1 154.389L196.908 155.914L196.413 153.277C195.858 151.292 193.15 149.008 191.575 147.424C189.88 147.198 181.75 144.889 179.125 144.294C175.915 145.043 171.378 145.945 168.46 147.213L166.053 145.075L158.545 145.04C159.775 142.752 159.085 143.349 161.148 142.031C164.365 141.992 165.445 142.153 168.348 140.545C171.018 138.659 182.298 143.442 191.193 141.083C192.235 134.286 193.203 133.884 197.883 128.558C200.133 125.413 202.068 122.95 205.833 121.803L207.28 120.03C207.595 117.426 207.16 118.383 208.743 116.296L208.615 116.003C207.363 114.861 206.815 114.867 205.188 114.478L203.823 115.876C201.258 116.054 202.413 116.317 200.215 115.178C199.99 112.728 200.845 111.937 201.993 109.462L201.37 109.037L199.713 109.972C199.158 109.012 199.263 109.55 199.525 108.338L201.01 107.305L200.695 105.877L201.415 105.032C201.948 103.663 202.473 101.844 202.938 100.412C211.69 101.053 208.27 97.5958 219.52 102.33C220.03 98.6183 218.613 95.5793 214.72 94.5005C215.118 92.8411 216.985 91.6506 218.395 90.4796Z" fill="#FA8507"/>
<path d="M194.208 146.311C198.063 146.29 198.393 144.904 199.473 141.967C202.818 140.097 204.46 140.893 208.593 141.332C205.518 142.157 203.808 142.427 201.183 144.331L200.47 145.797C202.353 148.491 204.603 148.151 207.715 148.462C215.815 149.723 217.623 152.358 228.49 153.896C228.753 154.071 241.893 166.058 241.653 165.706C239.23 166.482 236.838 165.043 234.528 164.318C223.6 160.875 213.678 156.704 201.955 157.247C199.893 157.343 199.128 155.947 198.1 154.389L196.908 155.914L196.413 153.277C195.858 151.292 193.15 149.008 191.575 147.424C192.505 146.523 192.895 146.615 194.208 146.311Z" fill="#FFAE29"/>
<path d="M191.575 147.424C192.505 146.523 192.895 146.615 194.208 146.311C197.013 147.186 197.41 146.746 198.61 148.801C198.408 150.672 198.19 152.508 198.1 154.389L196.908 155.914L196.413 153.277C195.858 151.292 193.15 149.008 191.575 147.424Z" fill="#F6E3BF"/>
<path d="M208.593 141.332C214.278 140.299 231.483 138.575 232.398 147.152C228.933 149.707 216.963 146.459 207.715 148.462C204.603 148.151 202.353 148.491 200.47 145.797L201.183 144.331C203.808 142.427 205.518 142.157 208.593 141.332Z" fill="#2C0F04"/>
<path d="M218.395 90.4796L220.293 90.7226C225.078 93.2477 225.663 96.1202 228.49 96.8584C229.803 98.4787 230.125 98.9169 231.123 100.738L233.688 104.681L236.5 107.128C235.12 107.536 234.168 107.62 233.343 108.75C232.623 111.683 233.118 112.459 230.11 113.831C229.045 111.729 227.373 109.563 226.09 107.086C224.08 105.053 221.928 103.84 219.52 102.33C220.03 98.6183 218.613 95.5793 214.72 94.5005C215.118 92.8411 216.985 91.6506 218.395 90.4796Z" fill="#F6951C"/>
<path d="M256.458 163.672C260.77 165.159 261.655 165.059 266.32 163.946C268.15 167.19 268.848 167.992 271.308 170.797C268.255 170.923 262.075 170.958 259.413 171.751C255.873 172.402 250.15 170.223 246.813 169.085L247.81 166.7C248.89 166.441 253.93 164.521 255.558 163.977L256.458 163.672Z" fill="#F07604"/>
<path d="M202.938 100.412C211.69 101.053 208.27 97.5958 219.52 102.33C221.928 103.84 224.08 105.053 226.09 107.086L225.303 107.283C223.458 107.735 222.865 107.254 221.245 108.488C218.635 108.608 216.363 107.161 213.91 105.988C207.708 107.083 206.875 107.686 201.415 105.032C201.948 103.663 202.473 101.844 202.938 100.412Z" fill="#4B1D0A"/>
<path d="M236.95 107.701C238.503 109.241 239.898 110.233 240.385 112.287L240.835 112.864L241.983 116.812C244.075 121.64 243.693 119.135 245.86 121.487C247.54 123.317 246.483 127.917 249.1 131.041L245.26 136.713C245.403 138.513 245.92 143.444 245.665 144.971L245.208 144.648C243.715 139.022 243.303 131.852 241.863 125.566C240.985 121.752 236.898 109.67 236.95 107.701Z" fill="#A8480D"/>
<path d="M228.49 153.896C236.545 152.5 245.92 158.399 247.81 166.7L246.813 169.085C244.083 168.028 243.535 167.905 241.653 165.706C241.893 166.058 228.753 154.071 228.49 153.896Z" fill="#FD9211"/>
<path d="M205.833 121.803C215.013 121.815 214.398 121.957 222.745 126.008C221.253 125.831 221.095 125.875 219.843 125.482C216.37 124.395 204.625 127.62 200.808 128.653C199.068 131.841 198.04 136.147 196.023 138.014L195.003 138.004C195.235 135.137 200.838 133.341 197.883 128.558C200.133 125.413 202.068 122.95 205.833 121.803Z" fill="#FD9211"/>
<path d="M251.17 152.357C257.89 158.646 257.965 159.394 266.32 163.946C261.655 165.059 260.77 165.159 256.458 163.672C254.785 157.768 251.403 156.725 251.17 152.357Z" fill="#E66C03"/>
<path d="M166.053 145.075C167.71 144.508 168.393 144.352 169.555 142.921C174.25 141.14 177.07 141.845 181.54 143.016L179.02 143.211L178.63 143.994L179.125 144.294C175.915 145.043 171.378 145.945 168.46 147.213L166.053 145.075Z" fill="#FFBC39"/>
<path d="M226.09 107.086C227.373 109.563 229.045 111.729 230.11 113.831L229.488 114.421C226.6 111.891 224.32 110.687 221.245 108.488C222.865 107.254 223.458 107.735 225.303 107.283L226.09 107.086Z" fill="#903D0A"/>
<path d="M208.743 116.296L211.99 118.33L211.87 119.029L207.28 120.03C207.595 117.426 207.16 118.383 208.743 116.296Z" fill="#D26109"/>
<path d="M123.648 201.364C126.183 201.708 131.268 202.129 133.24 203.401L139.06 202.218C144.265 206.967 155.05 205.137 162.708 207.579C169.863 209.723 178.278 209.567 182.253 211.061C183.28 214.988 178.285 216.709 176.838 219.404L183.145 218.228C176.545 223.474 174.648 227.793 167.238 228.514C165.318 229.1 164.733 230.355 164.5 232.434L160.78 232.281L159.595 230.641L159.498 229.577L155.538 228.047C153.715 228.563 151.87 229.132 150.003 229.455C151.353 230.521 152.71 231.573 154.015 232.684L149.815 233.843C148.458 235.737 142.998 238.137 140.95 238.624L139.585 237.723C136.353 240.425 133.128 243.797 130.953 247.426C129.738 245.821 128.92 244.119 127.968 242.342L126.475 237.688C123.355 233.706 123.123 228.786 122.44 223.834C122.245 219.593 122.403 216.042 122.583 211.792L122.568 209.438C123.888 207.504 124.96 206.504 124.368 204.247C122.238 203.55 122.005 203.653 119.71 203.818L114.55 201.693C118.495 201.546 119.178 202.886 123.648 201.364Z" fill="#A48E79"/>
<path d="M122.583 211.792C125.478 209.427 124.6 209.486 127.945 208.937C130.413 210.032 130.69 210.444 132.49 212.487L131.98 213.563L134.208 215.491C135.318 216.366 137.65 218.312 138.738 218.968C140.8 220.326 142.458 220.849 143.17 222.768L141.693 224.049C144.505 226.339 146.553 228.327 150.003 229.455C151.353 230.521 152.71 231.573 154.015 232.684L149.815 233.843C148.458 235.737 142.998 238.137 140.95 238.624L139.585 237.722C136.353 240.425 133.128 243.797 130.953 247.426C129.738 245.821 128.92 244.119 127.968 242.342L126.475 237.688C123.355 233.706 123.123 228.786 122.44 223.834C122.245 219.593 122.403 216.042 122.583 211.792Z" fill="#F5E7CC"/>
<path d="M122.583 211.792C125.478 209.427 124.6 209.486 127.945 208.937C130.413 210.032 130.69 210.444 132.49 212.487L131.98 213.563L134.208 215.491C135.318 216.366 137.65 218.312 138.738 218.968C140.8 220.326 142.458 220.849 143.17 222.768L141.693 224.049C139.33 223.27 138.933 223.029 136.855 221.642C135.115 219.815 134.733 219.726 132.318 218.951L130.623 219.552C128.148 224.79 131.763 224.415 128.583 230.253L129.468 234.777C128.17 236.659 127.315 236.583 126.475 237.688C123.355 233.706 123.123 228.786 122.44 223.834C122.245 219.593 122.403 216.042 122.583 211.792Z" fill="#D3BFA1"/>
<path d="M128.583 230.253C128.148 227.801 127.615 218.972 129.093 217.018C131.313 216.049 131.853 215.664 134.208 215.491C135.318 216.366 137.65 218.312 138.738 218.968C140.8 220.326 142.458 220.849 143.17 222.768L141.693 224.049C139.33 223.27 138.933 223.029 136.855 221.642C135.115 219.815 134.733 219.726 132.318 218.951L130.623 219.552C128.148 224.79 131.763 224.415 128.583 230.253Z" fill="#C8B394"/>
<path d="M128.583 230.253C131.763 224.415 128.148 224.79 130.623 219.552L132.318 218.951C134.733 219.726 135.115 219.815 136.855 221.642C134.673 221.585 133.195 221.486 131.028 221.218C133.848 227.609 130.113 232.315 134.455 236.369L139.885 236.749L139.585 237.723C136.353 240.425 133.128 243.798 130.953 247.426C129.738 245.821 128.92 244.119 127.968 242.342L126.475 237.688C127.315 236.583 128.17 236.659 129.468 234.777L128.583 230.253Z" fill="#E3D1B7"/>
<path d="M139.885 236.749C143.8 235.331 145.765 234.678 149.815 233.843C148.458 235.737 142.998 238.137 140.95 238.624L139.585 237.723L139.885 236.749Z" fill="#6F3514"/>
<path d="M138.738 218.968C144.603 218.255 144.168 223.261 148.93 222.106C151.368 221.515 151.405 220.457 155.215 221.471L156.475 221.203C157.21 222.513 157.218 222.318 157.6 223.734L155.425 227.525L155.538 228.047C153.715 228.563 151.87 229.132 150.003 229.455C146.553 228.327 144.505 226.339 141.693 224.049L143.17 222.768C142.458 220.849 140.8 220.326 138.738 218.968Z" fill="#B8A48D"/>
<path d="M156.475 221.203C157.21 222.513 157.218 222.318 157.6 223.734L155.425 227.525L153.34 226.696C155.905 221.795 154.053 226.055 155.215 221.471L156.475 221.203Z" fill="#C8B394"/>
<path d="M156.475 221.203C160.278 219.704 160.915 220.432 165.07 221.937L167.095 224.238C166.825 225.555 166.803 226.176 166.135 227.345L167.238 228.514C165.318 229.1 164.733 230.355 164.5 232.434L160.78 232.281L159.595 230.641L159.498 229.577L155.538 228.047L155.425 227.525L157.6 223.734C157.218 222.318 157.21 222.513 156.475 221.203Z" fill="#C2AC8F"/>
<path d="M156.475 221.203C160.278 219.704 160.915 220.432 165.07 221.937C163.908 223.417 163.398 223.93 163.24 225.825C161.943 225.164 161.973 225.033 160.6 224.786L157.6 223.734C157.218 222.318 157.21 222.513 156.475 221.203Z" fill="#B8A48D"/>
<path d="M157.6 223.734L160.6 224.786L159.498 229.577L155.538 228.047L155.425 227.525L157.6 223.734Z" fill="#D3BFA1"/>
<path d="M123.648 201.364C126.183 201.708 131.268 202.129 133.24 203.401L131.845 204.612L132.183 205.632L132.67 205.855C134.545 206.732 134.8 206.856 136.39 208.12C134.83 208.648 134.148 208.746 132.573 209.006L134.275 211.369C133.225 212.419 133.863 212.132 132.49 212.487C130.69 210.444 130.413 210.032 127.945 208.937C124.6 209.486 125.478 209.427 122.583 211.792L122.568 209.438C123.888 207.504 124.96 206.504 124.368 204.247C122.238 203.55 122.005 203.653 119.71 203.818L114.55 201.693C118.495 201.546 119.178 202.886 123.648 201.364Z" fill="#7B6456"/>
<path d="M77.9577 179.973C76.9227 179.839 75.8426 178.899 74.3651 178.379L73.5102 178.087L73.0302 176.956C75.3027 176.844 77.3877 176.815 79.6602 176.811L80.3277 175.875L78.7077 173.781C76.6752 173.668 75.6177 173.411 73.6227 172.986L72.9777 171.976C74.9727 171.003 74.6052 171.451 77.5302 172.424C79.6302 172.719 81.7452 172.833 83.6127 173.759C86.0127 174.563 86.7327 174.778 88.9152 176.007L89.7477 175.971C94.1952 176.559 95.6877 179.419 96.9327 179.477C101.883 180.501 106.623 180.043 111.588 180.955C113.71 181.346 117.498 185.734 119.305 185.29C122.155 184.033 123.34 183.923 126.115 185.174C126.528 185.363 126.933 185.561 127.338 185.768C124.24 187.207 124.038 184.668 120.7 186.42C122.493 189.556 130.465 191.679 133.983 191.935C128.928 193.063 126.768 189.617 124.105 192.814C126.49 193.708 130.113 193.862 132.79 194.826C143.32 198.615 166.645 205.967 177.423 202.046C181.255 203.444 201.43 203.614 203.628 200.994C202.72 200.329 202.465 200.19 201.468 199.739L200.568 199.337C209.568 198.868 217.233 194.56 226.323 195.594L229.885 196.201C227.178 197.065 222.4 198.743 219.79 199.316C213.903 201.242 209.268 203.732 204.333 205.658C201.558 206.743 186.408 206.291 182.575 206.642C176.478 207.201 167.793 204.318 162.708 207.579C155.05 205.137 144.265 206.967 139.06 202.218L133.24 203.401C131.268 202.129 126.183 201.709 123.648 201.364C119.178 202.886 118.495 201.546 114.55 201.694C101.875 198.763 93.1902 192.029 81.7602 188.093L80.0277 185.204C80.5977 184.628 80.9877 184.193 81.5052 183.576C80.3352 182.364 79.1502 181.163 77.9577 179.973Z" fill="#D3BFA1"/>
<path d="M77.9576 179.973C85.0076 177.648 86.8526 184.361 92.4626 187.417C99.0026 192.226 115.098 197.645 123.648 201.364C119.178 202.886 118.495 201.546 114.55 201.694C101.875 198.763 93.1902 192.029 81.7602 188.093L80.0276 185.204C80.5976 184.628 80.9876 184.193 81.5051 183.576C80.3351 182.364 79.1501 181.163 77.9576 179.973Z" fill="#A38B72"/>
<path d="M77.9577 179.973C76.9227 179.839 75.8426 178.899 74.3651 178.379L73.5102 178.087L73.0302 176.956C75.3027 176.844 77.3877 176.815 79.6602 176.811L80.3277 175.875L78.7077 173.781C76.6752 173.668 75.6177 173.411 73.6227 172.986L72.9777 171.976C74.9727 171.003 74.6052 171.451 77.5302 172.424C79.6302 172.719 81.7452 172.833 83.6127 173.759C86.0127 174.563 86.7327 174.778 88.9152 176.007L89.7477 175.971L88.4202 178.102C89.1852 179.554 89.6577 180.164 91.6902 180.565C100.428 182.288 102.835 182.192 111.175 185.716L111.303 186.516L110.583 186.526C107.245 185.719 102.393 184.991 100.203 188.447C96.7302 187.351 96.1826 187.137 92.4626 187.418C86.8526 184.361 85.0077 177.648 77.9577 179.973Z" fill="#B8A48D"/>
<path d="M92.4626 187.418C96.1826 187.137 96.7302 187.351 100.203 188.447C104.838 190.547 110.598 192.495 115.525 193.907L116.44 194.697C119.215 197.515 122.575 196.519 126.715 197.67C130.218 199.152 135.475 201.634 139.06 202.218L133.24 203.401C131.268 202.129 126.183 201.708 123.648 201.364C115.098 197.646 99.0026 192.226 92.4626 187.418Z" fill="#B09A82"/>
<path d="M100.203 188.447C102.393 184.991 107.245 185.719 110.583 186.526L103.923 187.762C109.428 189.018 111.798 189.342 115.525 193.907C110.598 192.495 104.838 190.547 100.203 188.447Z" fill="#C2AC8F"/>
<path d="M116.44 194.697C121.263 193.595 124.323 192.445 126.715 197.67C122.575 196.519 119.215 197.515 116.44 194.697Z" fill="#C2AC8F"/>
<path d="M259.413 171.751C262.075 170.958 268.255 170.923 271.308 170.797L274.69 172.762L275.29 174.135C274.158 176.58 271.113 180.12 268.803 181.197C250.405 201.57 221.943 209.11 195.573 211.837C192.895 212.268 192.528 211.906 190.63 214.201C186.318 215.209 185.23 217.888 183.145 218.227L176.838 219.404C178.285 216.709 183.28 214.988 182.253 211.061C178.278 209.567 169.863 209.723 162.708 207.579C167.793 204.318 176.478 207.201 182.575 206.642C186.408 206.291 201.558 206.743 204.333 205.658C209.268 203.732 213.903 201.242 219.79 199.316C222.4 198.743 227.178 197.065 229.885 196.201L226.323 195.594C229.105 195.719 233.17 194.535 235.353 192.684L235.42 191.814C233.448 189.862 229.143 189.994 226.248 189.811C228.273 189.57 228.745 189.602 230.583 188.791C229.668 187.679 228.505 187.785 226.713 187.369C230.043 187.394 233.568 186.435 237.753 186.462L238.533 186.016L239.185 185.947C242.98 185.549 244.233 186.242 247.413 183.616L246.768 182.726C242.538 183.691 241.975 183.775 237.715 183.033C240.985 182.827 244.068 181.766 247.66 181.412C247.96 182.8 247.848 183.096 248.763 184.122C249.708 183.315 249.813 183.207 250.435 182.182L250.915 181.375L252.153 181.295C253.795 180.51 255.408 178.635 255.168 176.745L252.52 176.247C257.853 176.031 263.418 175.649 268.278 173.254L268.3 172.211C265.368 171.153 262.585 171.592 259.413 171.751Z" fill="#B8A48D"/>
<path d="M274.69 172.762L275.29 174.135C274.158 176.58 271.113 180.12 268.803 181.197C264.138 182.817 258.865 184.652 253.953 184.868L253.945 184.213C262.248 177.179 267.258 179.316 274.69 172.762Z" fill="#D3BFA1"/>
<path d="M229.885 196.201C236.178 196.372 237.43 191.336 244.413 192.141L245.41 194.46L246.31 194.134C238.78 198.096 228.213 199.952 219.79 199.316C222.4 198.743 227.178 197.065 229.885 196.201Z" fill="#C8B394"/>
<path d="M238.533 186.016C241.9 186.017 246.903 185.398 249.033 188.453C245.883 190.476 241.308 187.504 237.753 186.463L238.533 186.016Z" fill="#D3BFA1"/>
<path d="M81.7602 188.093C75.8877 185.496 73.2552 183.652 69.1302 178.508C63.3552 171.313 50.4777 160.07 50.1327 149.878L52.4727 148.749C57.4002 153.445 75.2502 154.055 81.3552 151.298L83.5452 150.905C79.0002 157.246 75.8127 152.772 72.7152 155.499C75.8502 161.751 86.9427 155.265 88.8177 164.297C90.3477 165.602 90.8727 165.621 92.8527 166.23C91.1277 166.816 89.8676 166.586 88.0526 166.484L88.1277 167.808L88.2027 166.463L88.1277 167.814L86.9352 168.877C88.0527 173.466 99.4152 176.546 103.818 177.679C101.68 177.84 101.26 177.812 99.1227 177.541C98.0502 178.379 97.8027 178.466 96.9327 179.477C95.6877 179.419 94.1951 176.559 89.7477 175.971L88.9152 176.007C86.7327 174.778 86.0127 174.563 83.6127 173.759C81.7452 172.833 79.6302 172.719 77.5302 172.424C74.6052 171.451 74.9727 171.003 72.9777 171.976L73.6227 172.985C75.6177 173.411 76.6752 173.668 78.7077 173.781L80.3277 175.875L79.6602 176.811C77.3877 176.815 75.3027 176.844 73.0302 176.956L73.5102 178.087L74.3651 178.379C75.8426 178.899 76.9227 179.839 77.9577 179.973C79.1502 181.163 80.3352 182.364 81.5052 183.576C80.9877 184.193 80.5977 184.628 80.0277 185.204L81.7602 188.093Z" fill="#C2AC8F"/>
<path d="M73.72 161.915C78.895 164.035 81.4525 165.124 87.0325 165.28L86.6801 167.002L83.7851 167.927L83.9275 169.796C85.4575 170.621 84.6551 170.418 86.4101 170.398L85.8176 171.778L85.7876 170.986L85.1951 171.21L84.8276 172.943C84.3776 173.188 83.9576 173.379 83.6126 173.759C81.7451 172.833 79.6301 172.719 77.5301 172.424C76.9901 171.767 76.5926 171.315 76.1726 170.551C73.4201 165.536 71.6875 168.091 73.72 161.915Z" fill="#D3BFA1"/>
<path d="M73.7202 161.915C71.0202 160.718 68.3952 159.923 66.6027 157.703L67.2777 156.57C72.1152 156.202 82.0227 159.825 86.3052 161.995C87.1752 163.468 87.0402 163.602 87.0327 165.28C81.4527 165.124 78.8952 164.035 73.7202 161.915Z" fill="#E4C9A4"/>
<path d="M52.8401 153.141C57.5576 154.499 61.6226 155.457 65.5826 158.61C70.0976 162.214 70.9901 164.606 71.7101 170.143C70.3526 169.683 69.7826 169.244 68.7776 168.278L69.4451 168.213C65.5676 162.637 58.3226 163.736 52.8401 153.141Z" fill="#B09A82"/>
<path d="M168.46 147.213C171.378 145.945 175.915 145.043 179.125 144.294C181.75 144.889 189.88 147.198 191.575 147.424C193.15 149.008 195.858 151.292 196.413 153.277L196.908 155.914C189.805 172.628 164.688 164.454 166.383 149.496L168.46 147.213Z" fill="#1B0D09"/>
<path d="M168.46 147.213C171.378 145.945 175.915 145.043 179.125 144.294C181.75 144.889 189.88 147.198 191.575 147.424C193.15 149.008 195.858 151.292 196.413 153.277C190.488 155.873 187.743 155.335 181.78 153.786L172.548 152.146L171.273 152.598C168.865 152.124 168.438 151.217 166.383 149.496L168.46 147.213Z" fill="#3D271E"/>
<path d="M172.548 152.146C171.498 150.986 170.853 150.844 169.428 150.361C170.463 144.826 183.528 146.477 187.323 149.165L187.75 150.547C186.138 152.554 184.27 152.889 181.78 153.786L172.548 152.146Z" fill="#7C6659"/>
<path d="M108.64 127.795L110.8 130.09C111.933 131.353 114.145 133.61 114.775 135.031C115.945 137.028 115.855 136.943 117.76 138.241L119.545 139.685L119.283 140.59C116.418 140.865 113.583 140.83 110.92 141.621C116.59 142.124 121.675 141.67 126.918 143.887C126.985 143.897 127.045 143.907 127.105 143.917L127.578 144.862C126.385 144.894 121.248 145.147 120.175 144.893C109.765 142.428 101.83 146.926 91.4576 147.542C88.6676 146.861 88.4426 147.028 87.3401 144.367C90.0551 140.741 93.4901 141.597 95.0426 139.737C96.5576 137.914 96.9251 136.058 99.7376 133.114L99.2201 131.49C100.96 131.266 106.765 128.616 108.64 127.795Z" fill="#F6951C"/>
<path d="M110.8 130.09C111.933 131.353 114.145 133.61 114.775 135.031C115.945 137.028 115.855 136.943 117.76 138.241L119.545 139.685L119.283 140.59C116.418 140.865 113.583 140.83 110.92 141.621C109.623 138.518 111.82 136.882 111.303 132.189L110.8 130.09Z" fill="#EF7A0F"/>
<path d="M108.64 127.795L110.8 130.09L111.303 132.189C106.608 132.267 104.32 132.342 99.7376 133.114L99.2201 131.49C100.96 131.266 106.765 128.616 108.64 127.795Z" fill="#F98609"/>
<path d="M199.503 195.757C206.635 195.269 218.005 191.442 226.248 189.811C229.143 189.994 233.448 189.862 235.42 191.814L235.353 192.684C233.17 194.535 229.105 195.719 226.323 195.594C217.233 194.56 209.568 198.867 200.568 199.337L201.468 199.739C202.465 200.19 202.72 200.329 203.628 200.994C201.43 203.614 181.255 203.444 177.423 202.046C186.145 200.789 190.765 200.817 199.66 200.905C199.263 200.229 199.143 199.94 198.828 199.235L199.653 198.096C202.278 196.799 204.82 196.916 207.73 196.796L207.685 196.318C206.275 195.907 201.273 195.829 199.503 195.757Z" fill="#E3D1B7"/>
<path d="M135.07 157.421C139.57 157.186 144.145 157.369 144.895 162.899C149.073 165.396 148.39 166.047 151.375 168.698C156.925 173.634 165.16 174.915 172.27 173.911C175.315 173.559 177.963 170.947 180.76 171.5C180.603 173.457 180.348 172.649 181.09 174.128C183.753 175.502 184.533 175.952 187.495 176.707C186.61 178.078 186.73 178.049 185.223 178.643C182.23 177.482 180.708 176.318 178.068 174.52C166.375 176.475 157.923 174.609 146.44 171.694C144.76 171.435 137.125 170.58 136.878 168.958C136.06 163.743 128.725 164.283 128.59 159.712C130.233 157.875 132.49 157.871 135.07 157.421Z" fill="#F6E3BF"/>
<path d="M144.895 162.899C149.073 165.396 148.39 166.047 151.375 168.698C156.925 173.634 165.16 174.915 172.27 173.911C175.315 173.559 177.963 170.947 180.76 171.5C180.603 173.457 180.348 172.649 181.09 174.128C183.753 175.502 184.533 175.952 187.495 176.707C186.61 178.078 186.73 178.049 185.223 178.643C182.23 177.482 180.708 176.318 178.068 174.52C166.375 176.475 157.923 174.609 146.44 171.694L146.703 171.026L150.918 171.766L151.69 170.69C151 170.276 147.775 168.846 147.805 168.965C146.785 165.175 148.135 166.671 144.985 164.488L144.895 162.899Z" fill="#A38B72"/>
<path d="M135.07 157.421C139.57 157.186 144.145 157.369 144.895 162.899L144.985 164.488C143.605 164.128 142.72 163.411 141.52 162.625C140.778 160.965 140.493 159.749 138.963 158.85L135.49 160.268L134.793 159.613L135.07 157.421Z" fill="#573624"/>
<path d="M204.13 172.642C199 171.588 195.888 170.201 191.005 172.13L190.728 171.164C191.92 169.609 192.273 168.777 194.763 168.646C198.625 168.444 208.788 166.488 211.893 168.217C211.69 170.339 209.785 171.639 208.008 172.777C207.663 171.41 207.348 171.111 206.575 169.94L205.308 170.095L204.13 172.642Z" fill="#F6E3BF"/>
<path d="M113.275 178.165C119.673 179.879 126.685 179.813 133.278 181.4L133.69 182.269C131.785 182.379 130.045 182.053 128.65 183.43C125.275 183.701 111.423 180.724 108.76 179.038L109.24 178.354L113.275 178.165Z" fill="#F6E3BF"/>
<path d="M204.13 172.642L205.308 170.095L206.575 169.94C207.348 171.111 207.663 171.41 208.008 172.777C209.358 174.791 208.63 174.229 210.73 175.298C208.525 176.919 208.195 176.196 205.96 174.659C197.973 173.841 193.473 183.396 185.223 178.643C186.73 178.049 186.61 178.078 187.495 176.707C193.218 177.883 198.895 175.265 204.13 172.642Z" fill="#A48E79"/>
<path d="M119.71 203.818C122.005 203.653 122.238 203.55 124.368 204.247C124.96 206.504 123.888 207.504 122.568 209.438L122.583 211.792C122.403 216.042 122.245 219.593 122.44 223.834C123.123 228.786 123.355 233.706 126.475 237.688L127.968 242.342C128.92 244.119 129.738 245.821 130.953 247.426C130.405 249.246 129.828 251.056 129.213 252.855L128.32 254.557L127.48 256.291C125.38 257.375 123.46 258.302 122.643 260.663C121.33 264.448 121.728 267.175 119.088 270.533C119.193 273.441 119.328 274.37 117.28 276.572C117.115 276.754 116.935 276.925 116.763 277.101L115.555 277.991C111.723 277.455 107.583 277.599 103.698 277.455L96.0476 276.415L95.1851 276.277C84.3776 276.301 71.5301 273.896 61.4351 269.857C64.1201 266.392 65.9051 262.855 67.7726 258.907C70.1726 252.933 82.3751 228.002 87.3851 224.983C92.3576 221.985 108.333 214.82 115.848 209.816C117.693 208.373 119.103 207.615 119.935 205.473L119.358 205.324L119.71 203.818Z" fill="#232D3E"/>
<path d="M113.38 239.854L117.738 238.344C120.475 238.503 119.635 238.653 121.855 239.386L123.123 238.105L124.435 238.218C125.68 240.066 125.83 240.33 126.625 242.405C126.993 242.409 127.698 242.476 127.968 242.342C128.92 244.119 129.738 245.821 130.953 247.426C130.405 249.246 129.828 251.056 129.213 252.855L128.32 254.557L127.48 256.291C125.38 257.375 123.46 258.302 122.643 260.663C121.33 264.448 121.728 267.175 119.088 270.533C119.193 273.441 119.328 274.37 117.28 276.572C117.115 276.754 116.935 276.925 116.763 277.101C113.905 273.112 111.235 269.123 108.723 264.902C109.113 264.524 109.398 264.296 109.683 263.798C110.688 262.035 109.653 258.576 109.33 256.655C106.315 251.718 104.973 249.41 102.685 243.948C105.895 242.516 110.02 241.104 113.38 239.854Z" fill="#313E51"/>
<path d="M109.33 256.655C111.445 259.375 116.89 269.244 119.088 270.533C119.193 273.441 119.328 274.37 117.28 276.572C117.115 276.754 116.935 276.925 116.763 277.101C113.905 273.112 111.235 269.123 108.723 264.902C109.113 264.524 109.398 264.296 109.683 263.798C110.688 262.035 109.653 258.576 109.33 256.655Z" fill="#C2AC8F"/>
<path d="M121.855 239.386L123.123 238.105L124.435 238.218C125.68 240.066 125.83 240.33 126.625 242.405C126.993 242.409 127.698 242.476 127.968 242.342C128.92 244.119 129.738 245.821 130.953 247.426C130.405 249.246 129.828 251.056 129.213 252.855L128.32 254.557C123.273 251.871 123.4 245.048 121.855 239.386Z" fill="#333E50"/>
<path d="M78.9626 250.8C80.6576 251.494 81.1226 251.863 82.9676 251.513C84.0776 252.444 84.5351 252.82 86.0351 252.981C87.8651 254.642 88.5176 257.895 89.0426 260.336C89.8001 265.081 91.7201 270.69 93.9701 274.931C94.1351 274.881 94.3001 274.791 94.4726 274.781C94.6601 274.77 94.8401 274.839 95.0276 274.869L95.1851 276.277C84.3776 276.301 71.5301 273.896 61.4351 269.857C64.1201 266.392 65.9051 262.855 67.7726 258.907C68.0876 259.682 68.2901 260.294 68.9351 260.866C70.8176 262.529 74.9351 264.916 77.3276 265.006C79.6901 261.868 78.7526 256.935 79.9076 253.077C79.9676 252.872 80.0351 252.669 80.0951 252.466L78.9626 250.8Z" fill="#1C2331"/>
<path d="M78.9626 250.8C80.6576 251.494 81.1227 251.863 82.9677 251.513C84.0777 252.444 84.5352 252.82 86.0352 252.981C87.8652 254.642 88.5177 257.895 89.0427 260.336C85.0002 258.939 82.6752 255.68 80.0952 252.466L78.9626 250.8Z" fill="#2A3649"/>
<path d="M119.71 203.818C122.005 203.653 122.238 203.55 124.368 204.247C124.96 206.504 123.888 207.504 122.568 209.438L122.583 211.792C122.403 216.042 122.245 219.593 122.44 223.834C123.123 228.786 123.355 233.706 126.475 237.688L127.968 242.342C127.698 242.476 126.993 242.409 126.625 242.405C125.83 240.33 125.68 240.066 124.435 238.218L123.123 238.105L121.855 239.386C119.635 238.653 120.475 238.503 117.738 238.344L118.023 236.771C117.52 233.602 117.243 231.765 116.313 228.672C118.398 224.769 115.06 220.707 116.185 212.232L115.848 209.816C117.693 208.373 119.103 207.615 119.935 205.473L119.358 205.324L119.71 203.818Z" fill="#212A3A"/>
<path d="M119.71 203.818C122.005 203.653 122.238 203.55 124.368 204.247C124.96 206.504 123.888 207.504 122.568 209.438L122.583 211.792C122.403 216.042 122.245 219.593 122.44 223.834L120.573 223.399C117.28 219.801 118.053 218.077 120.588 214.159L120.963 213.594C119.605 212.929 117.685 212.58 116.185 212.232L115.848 209.816C117.693 208.373 119.103 207.615 119.935 205.473L119.358 205.324L119.71 203.818Z" fill="#181D2A"/>
<path d="M92.1477 251.503L93.3177 251.338C97.0752 259.823 100.51 268.734 103.698 277.455L96.0477 276.415L95.1852 276.277L95.0277 274.869C94.8402 274.839 94.6602 274.77 94.4727 274.781C94.3002 274.791 94.1352 274.881 93.9702 274.931C91.7202 270.69 89.8002 265.081 89.0427 260.336C89.6802 259.133 90.0702 257.77 90.5352 256.49C91.5477 256.719 92.5302 256.991 93.5277 257.287L92.1477 251.503Z" fill="#181D2A"/>
<path d="M89.0427 260.336C89.6802 259.133 90.0702 257.77 90.5352 256.49C91.5477 256.719 92.5302 256.991 93.5277 257.287C94.5327 261.909 94.9452 266.886 96.8652 271.218L96.8578 275.974L96.0477 276.415L95.1852 276.277L95.0277 274.869C94.8402 274.839 94.6602 274.77 94.4727 274.781C94.3002 274.791 94.1352 274.881 93.9702 274.931C91.7202 270.69 89.8002 265.081 89.0427 260.336Z" fill="#232D3E"/>
<path d="M96.8651 271.218C98.0726 272.503 99.8052 273.901 99.9477 275.725C98.6202 276.413 98.3577 276.224 96.8577 275.974L96.8651 271.218Z" fill="#1D2534"/>
<path d="M86.0352 252.98C83.9877 248.052 82.0302 244.33 83.5827 238.903L84.8577 238.443C89.4177 241.16 90.4902 246.785 92.1477 251.503L93.5277 257.287C92.5302 256.991 91.5477 256.719 90.5352 256.49C90.0702 257.77 89.6802 259.133 89.0427 260.336C88.5177 257.895 87.8652 254.642 86.0352 252.98Z" fill="#313E51"/>
<path d="M110.118 229.323C113.313 229.682 114.115 228.648 116.313 228.672C117.243 231.765 117.52 233.602 118.023 236.771L117.738 238.344L113.38 239.854C111.813 238.215 111.588 238.08 109.375 237.637L107.365 237.759C103.308 236.089 102.528 236.296 101.343 231.968C102.88 231.421 105.333 232.352 107.028 232.732C109.458 231.589 108.64 232.149 110.118 229.323Z" fill="#313E51"/>
<path d="M109.375 237.637C113.073 235.59 114.138 235.853 118.023 236.771L117.738 238.344L113.38 239.854C111.813 238.215 111.588 238.08 109.375 237.637Z" fill="#EFEBEB"/>
<path d="M96.8651 242.725C99.1901 244.158 99.9101 243.997 102.685 243.948C104.973 249.41 106.315 251.718 109.33 256.655C109.653 258.576 110.688 262.035 109.683 263.798C109.398 264.296 109.113 264.524 108.723 264.902C105.858 260.188 96.6551 247.406 96.8651 242.725Z" fill="#E3D1B7"/>
<path d="M101.343 231.968C98.2827 227.56 101.83 222.494 107.455 223.327C109.413 225.42 108.805 224.429 109.473 227.615C109.713 228.701 109.51 228.516 110.118 229.323C108.64 232.149 109.458 231.589 107.028 232.732C105.333 232.352 102.88 231.421 101.343 231.968Z" fill="#A9975F"/>
<path d="M116.185 212.232C115.06 220.707 118.398 224.769 116.313 228.672C114.115 228.648 113.313 229.682 110.118 229.323C109.51 228.516 109.713 228.701 109.473 227.615L111.76 226.921C113.298 223.311 113.253 224.641 112.743 221.333L110.628 220.672L109.863 217.525C112.735 216.657 113.755 214.594 116.185 212.232Z" fill="#2A3649"/>
<path d="M107.365 237.759L109.375 237.637C111.588 238.08 111.813 238.215 113.38 239.854C110.02 241.104 105.895 242.516 102.685 243.947C99.9101 243.997 99.1901 244.158 96.8651 242.725C100.383 239.908 103.143 239.237 107.365 237.759Z" fill="#F5E7CC"/>
<path d="M78.9626 250.8C79.1876 248.728 79.1126 246.788 80.6501 245.23C82.2701 246.892 82.5627 249.239 82.9677 251.513C81.1227 251.863 80.6576 251.494 78.9626 250.8Z" fill="#333E50"/>
<path d="M109.863 217.525L110.628 220.672C109.068 221.147 109.173 221.14 107.553 221.002C107.763 219.056 108.115 219.331 109.863 217.525Z" fill="#3E4B5F"/>
<path d="M22.7801 35.5129C21.6176 17.4748 30.1526 20.1821 43.4051 20.0239C58.9076 31.5699 52.7951 56.9741 38.6951 66.3417C35.3951 65.9501 29.2976 65.4039 26.2601 64.7145C22.9601 64.4167 18.4976 63.2689 15.2576 62.4535C6.33261 60.2059 -2.87736 48.9269 0.85014 39.3554C1.75014 36.9818 3.59507 35.0846 5.93507 34.1123C11.2826 31.8363 17.6576 33.5504 22.7801 35.5129Z" fill="#FC7247"/>
<path d="M22.7802 35.5129C21.6177 17.4748 30.1527 20.1821 43.4052 20.0239C58.9077 31.5699 52.7952 56.9741 38.6952 66.3417C35.3952 65.9501 29.2977 65.4039 26.2602 64.7145C31.1352 63.578 38.3201 65.2517 43.0601 60.8526C47.2301 56.1115 49.7352 47.7154 49.9527 41.6652C50.6802 21.7755 45.7152 22.6337 29.3577 22.9736C27.5877 25.8348 24.5427 32.1348 23.6427 35.3306L22.7802 35.5129Z" fill="#EC795F"/>
<path d="M27.7601 82.3138C30.8651 84.5081 30.5876 89.1225 31.9451 92.4031C34.6676 98.9867 42.0476 101.625 48.0476 104.293C40.1651 108.055 34.3076 110.098 29.9426 118.16C29.3876 119.675 29.1101 120.756 27.7001 121.695C24.3626 119.183 25.3976 113.652 22.9376 110.437C20.9126 107.799 17.1026 105.694 14.5601 103.435L14.5976 102.156C15.4601 101.774 16.3076 101.371 17.1326 100.911C23.8451 97.1524 25.7126 89.1397 27.7601 82.3138Z" fill="#FFB527"/>
<path d="M285.693 120.508C287.485 121.746 287.973 124.541 288.475 126.677C289.435 130.782 291.783 132.928 294.048 136.322C293.103 138.265 284.763 141.659 280.743 149.287L280.3 150.139C278.755 146.836 277.773 143.094 276.618 139.625C274.645 138.044 272.485 136.665 270.4 135.232C278.095 130.851 281.223 128.305 285.693 120.508Z" fill="#FFB527"/>
<path d="M290.89 92.6251C292.008 89.9462 292.015 88.6986 294.048 87.085C295.75 88.3993 295.878 90.2507 296.448 92.4608C297.783 94.4675 299.455 95.6641 301.3 97.2305C297.348 99.2732 296.11 101.271 293.298 104.774C291.138 101.059 288.378 98.9866 288.213 95.5463L290.89 92.6251Z" fill="#FFB527"/>
<path d="M290.89 92.6251C292.008 89.9462 292.015 88.6986 294.048 87.085C295.75 88.3993 295.878 90.2507 296.448 92.4608L290.89 92.6251Z" fill="#FFAE29"/>
<path d="M168.235 61.3635C171.115 59.1587 177.093 53.7746 179.913 53.6921C180.843 55.8714 179.86 58.6028 179.328 61.1024L176.628 60.8668C173.703 59.8804 171.235 60.7116 168.235 61.3635Z" fill="#D26109"/>
</svg>
